<svg xmlns="http://www.w3.org/2000/svg" viewBox="0 0 1200 820">
<rect width="1200" height="820" fill="#fff"/>
<g transform="translate(35,50)">
<svg
   xmlns:svg="http://www.w3.org/2000/svg"
   xmlns="http://www.w3.org/2000/svg"
   width="490.0"
   height="240.0"

>
    <g transform="scale(1.2857142857142856, -1.2857142857142856)   translate(149.44444444444446,-89.44444444444444)" stroke-width="0.8"  fill="none">
       <!-- hidden lines -->
       <g  stroke="rgb(165,188,205)" fill="none" stroke-dasharray="0.8,0.8" >
			<path d="M-130.0,-70.0 L-130.0,70.0 " />
			<path d="M-130.0,-70.0 L130.0,-70.0 " />
			<path d="M-130.0,70.0 L130.0,70.0 " />
			<path d="M130.0,-70.0 L130.0,70.0 " />
			<path d="M-91.0,-45.0 L-91.00399002160762,-45.267963558463926 L-91.01595654859214,-45.53568952128601 L-91.03588897057554,-45.802940503493666 L-91.06376961404791,-46.069479541266084 L-91.0995737580382,-46.33507030204327 L-91.14326965603348,-46.59947729407538 L-91.1948185641277,-46.86246607522654 L-91.25417477537482,-47.123803460848016 L-91.32128566031588,-47.38325773053635 L-91.39609171364398,-47.64059883359328 L-91.47852660696596,-47.895598593005076 L-91.56851724761393,-48.148030907760635 L-91.6659838434544,-48.39767195332877 L-91.77083997363772,-48.644300380117045 L-91.88299266522498,-48.887697509736135 L-92.00234247562445,-49.127647528895736 L-92.12878358076448,-49.363937680760024 L-92.26220386892473,-49.59635845359308 L-92.40248504014238,-49.82470376652699 L-92.54950271110538,-50.048771152287834 L-92.70312652543952,-50.26836193671767 L-92.86322026929177,-50.48328141493323 L-93.0296419921072,-50.69333902396519 L-93.2022441324925,-50.8983485117249 L-93.38087364905437,-51.09812810214882 L-93.56537215609708,-51.29250065637417 L-93.75557606405852,-51.48129382980289 L-93.95131672456027,-51.66434022491467 L-94.1524205799435,-51.84147753969357 L-94.35870931715745,-52.01254871153662 L-94.5700000258646,-52.17740205651666 L-94.78610536062202,-52.33589140387625 L-95.00683370699518,-52.487876225633045 L-95.23198935145714,-52.633221761181964 L-95.46137265492199,-52.771799136783585 L-95.69478022975923,-52.90348547983281 L-95.93200512013176,-53.02816402780647 L-96.17283698549771,-53.14572423179337 L-96.41706228711337,-53.25606185451482 L-96.66446447737195,-53.35907906274886 L-96.91482419181015,-53.45468451407621 L-97.16791944361233,-53.54279343787095 L-97.42352582043998,-53.62332771046424 L-97.68141668341158,-53.69621592441436 L-97.94136336805703,-53.761393451821604 L-98.20313538706773,-53.81880250163206 L-98.46650063466323,-53.86839217087921 L-98.73122559239272,-53.91011848981824 L-98.99707553618921,-53.94394446091264 L-99.26381474449269,-53.96984009163896 L-99.53120670725767,-53.98778242108028 L-99.79901433565986,-53.99775554028502 L-100.06700017231617,-53.99975060637291 L-100.33492660183133,-53.99376585037579 L-100.60255606148463,-53.979806578806034 L-100.86965125187014,-53.95788516895147 L-101.13597534730319,-53.928021057900764 L-101.40129220580702,-53.8902407253091 L-101.66536657849313,-53.84457766991947 L-101.92796431814973,-53.79107237986023 L-102.18885258685343,-53.729772296745494 L-102.4478000624199,-53.66073177360996 L-102.70457714351079,-53.584012026715655 L-102.95895615321454,-53.49968108127321 L-103.21071154092112,-53.407813711125854 L-103.45962008231123,-53.308491372449566 L-103.70546107728299,-53.20180213152821 L-103.94801654564041,-53.08784058666771 L-104.18707142037022,-52.96670778431837 L-104.42241373833558,-52.838511129479926 L-104.6538348282179,-52.703364290468556 L-104.88112949553957,-52.56138709813045 L-105.10409620460418,-52.41270543959122 L-105.32253725719241,-52.25745114663535 L-105.5362589678554,-52.09576187881475 L-105.74507183565015,-51.92778100138994 L-105.94879071216457,-51.753657458212146 L-106.14723496568327,-51.573545639659095 L-106.34022864134859,-51.3876052457414 L-106.52760061717476,-51.19600114450116 L-106.70918475577683,-50.99890322582818 L-106.88482005168001,-50.796486250823406 L-107.05435077407859,-50.588929696843294 L-107.21762660491798,-50.37641759836232 L-107.37450277217754,-50.159138383794904 L-107.52484017823565,-49.93728470842126 L-107.66850552320378,-49.71105328356549 L-107.80537142311952,-49.480644702177266 L-107.93531652289444,-49.24626326097176 L-108.0582256039161,-49.008116779285615 L-108.17398968620918,-48.76641641480943 L-108.28250612506484,-48.52137647636027 L-108.38367870205289,-48.27321423386017 L-108.47741771033594,-48.02214972568908 L-108.56364003420987,-47.768405563583116 L-108.64226922280018,-47.51220673525107 L-108.71323555784875,-47.25378040488427 L-108.77647611553108,-46.9933557117365 L-108.83193482224904,-46.731163566952844 L-108.87956250434969,-46.467436448827314 L-108.91931693172624,-46.20240819667097 L-108.95116285526217,-45.936313803473325 L-108.97507203808571,-45.66938920754071 L-108.99102328060661,-45.401871083296534 L-108.99900243931324,-45.13399663142885 L-108.99900243931324,-44.866003368571214 L-108.99102328060661,-44.59812891670352 L-108.97507203808571,-44.33061079245935 L-108.95116285526218,-44.06368619652673 L-108.91931693172626,-43.797591803329084 L-108.8795625043497,-43.53256355117275 L-108.83193482224905,-43.26883643304721 L-108.7764761155311,-43.00664428826356 L-108.71323555784876,-42.7462195951158 L-108.6422692228002,-42.48779326474899 L-108.5636400342099,-42.23159443641694 L-108.47741771033596,-41.977850274310974 L-108.3836787020529,-41.72678576613988 L-108.28250612506486,-41.47862352363979 L-108.17398968620921,-41.23358358519063 L-108.05822560391613,-40.99188322071444 L-107.93531652289447,-40.75373673902829 L-107.80537142311955,-40.51935529782279 L-107.6685055232038,-40.288946716434566 L-107.52484017823569,-40.0627152915788 L-107.37450277217756,-39.840861616205146 L-107.21762660491802,-39.62358240163773 L-107.05435077407863,-39.411070303156755 L-106.88482005168005,-39.20351374917664 L-106.70918475577687,-39.00109677417187 L-106.5276006171748,-38.80399885549888 L-106.34022864134863,-38.612394754258645 L-106.14723496568331,-38.42645436034095 L-105.94879071216461,-38.2463425417879 L-105.74507183565021,-38.072218998610104 L-105.53625896785545,-37.90423812118529 L-105.32253725719244,-37.74254885336468 L-105.10409620460422,-37.58729456040881 L-104.8811294955396,-37.43861290186957 L-104.65383482821792,-37.29663570953146 L-104.4224137383356,-37.16148887052009 L-104.18707142037024,-37.03329221568164 L-103.94801654564044,-36.912159413332304 L-103.70546107728302,-36.798197868471796 L-103.45962008231125,-36.69150862755045 L-103.21071154092114,-36.592186288874146 L-102.95895615321456,-36.50031891872679 L-102.70457714351079,-36.415987973284345 L-102.4478000624199,-36.33926822639004 L-102.18885258685341,-36.270227703254506 L-101.92796431814973,-36.20892762013977 L-101.66536657849312,-36.155422330080526 L-101.40129220580701,-36.109759274690894 L-101.13597534730317,-36.071978942099236 L-100.86965125187011,-36.04211483104853 L-100.6025560614846,-36.020193421193966 L-100.33492660183128,-36.00623414962421 L-100.06700017231614,-36.00024939362709 L-99.79901433565982,-36.00224445971498 L-99.53120670725762,-36.01221757891972 L-99.26381474449265,-36.03015990836104 L-98.99707553618917,-36.05605553908737 L-98.73122559239266,-36.08988151018177 L-98.46650063466318,-36.131607829120796 L-98.20313538706768,-36.18119749836796 L-97.94136336805697,-36.23860654817841 L-97.68141668341151,-36.30378407558566 L-97.4235258204399,-36.376672289535776 L-97.16791944361226,-36.45720656212907 L-96.91482419181007,-36.545315485923815 L-96.66446447737187,-36.64092093725117 L-96.41706228711328,-36.74393814548522 L-96.17283698549763,-36.85427576820667 L-95.93200512013168,-36.971835972193574 L-95.69478022975915,-37.09651452016724 L-95.4613726549219,-37.228200863216465 L-95.23198935145705,-37.36677823881809 L-95.0068337069951,-37.51212377436702 L-94.78610536062192,-37.66410859612382 L-94.5700000258645,-37.822597943483416 L-94.35870931715735,-37.98745128846346 L-94.1524205799434,-38.158522460306514 L-93.95131672456017,-38.335659775085425 L-93.7555760640584,-38.518706170197206 L-93.565372156097,-38.707499343625926 L-93.38087364905427,-38.90187189785129 L-93.2022441324924,-39.101651488275216 L-93.02964199210712,-39.306660976034934 L-92.86322026929167,-39.5167185850669 L-92.70312652543942,-39.73163806328246 L-92.54950271110528,-39.9512288477123 L-92.4024850401423,-40.175296233473155 L-92.26220386892464,-40.403641546407066 L-92.12878358076439,-40.63606231924013 L-92.00234247562436,-40.87235247110442 L-91.8829926652249,-41.11230249026403 L-91.77083997363765,-41.35569961988313 L-91.66598384345433,-41.60232804667141 L-91.56851724761387,-41.85196909223955 L-91.4785266069659,-42.104401406995116 L-91.39609171364393,-42.35940116640691 L-91.32128566031582,-42.61674226946384 L-91.25417477537478,-42.87619653915219 L-91.19481856412766,-43.13753392477367 L-91.14326965603344,-43.400522705924836 L-91.09957375803818,-43.66492969795695 L-91.06376961404789,-43.93052045873414 L-91.03588897057551,-44.19705949650656 L-91.01595654859213,-44.464310478714225 L-91.0039900216076,-44.7320364415363 L-91.0,-45.000000000000234 " />
			<path d="M109.0,-45.0 L108.99600997839238,-45.267963558463926 L108.98404345140786,-45.53568952128601 L108.96411102942446,-45.802940503493666 L108.93623038595209,-46.069479541266084 L108.9004262419618,-46.33507030204327 L108.85673034396652,-46.59947729407538 L108.8051814358723,-46.86246607522654 L108.74582522462518,-47.123803460848016 L108.67871433968412,-47.38325773053635 L108.60390828635602,-47.64059883359328 L108.52147339303404,-47.895598593005076 L108.43148275238607,-48.148030907760635 L108.3340161565456,-48.39767195332877 L108.22916002636228,-48.644300380117045 L108.11700733477502,-48.887697509736135 L107.99765752437555,-49.127647528895736 L107.87121641923552,-49.363937680760024 L107.73779613107527,-49.59635845359308 L107.59751495985762,-49.82470376652699 L107.45049728889462,-50.048771152287834 L107.29687347456048,-50.26836193671767 L107.13677973070823,-50.48328141493323 L106.9703580078928,-50.69333902396519 L106.7977558675075,-50.8983485117249 L106.61912635094563,-51.09812810214882 L106.43462784390292,-51.29250065637417 L106.24442393594148,-51.48129382980289 L106.04868327543973,-51.66434022491467 L105.8475794200565,-51.84147753969357 L105.64129068284255,-52.01254871153662 L105.4299999741354,-52.17740205651666 L105.21389463937798,-52.33589140387625 L104.99316629300482,-52.487876225633045 L104.76801064854286,-52.633221761181964 L104.53862734507801,-52.771799136783585 L104.30521977024077,-52.90348547983281 L104.06799487986824,-53.02816402780647 L103.82716301450229,-53.14572423179337 L103.58293771288663,-53.25606185451482 L103.33553552262805,-53.35907906274886 L103.08517580818985,-53.45468451407621 L102.83208055638767,-53.54279343787095 L102.57647417956002,-53.62332771046424 L102.31858331658842,-53.69621592441436 L102.05863663194297,-53.761393451821604 L101.79686461293227,-53.81880250163206 L101.53349936533677,-53.86839217087921 L101.26877440760728,-53.91011848981824 L101.00292446381079,-53.94394446091264 L100.73618525550731,-53.96984009163896 L100.46879329274233,-53.98778242108028 L100.20098566434014,-53.99775554028502 L99.93299982768383,-53.99975060637291 L99.66507339816867,-53.99376585037579 L99.39744393851537,-53.979806578806034 L99.13034874812986,-53.95788516895147 L98.86402465269681,-53.928021057900764 L98.59870779419298,-53.8902407253091 L98.33463342150687,-53.84457766991947 L98.07203568185027,-53.79107237986023 L97.81114741314657,-53.729772296745494 L97.5521999375801,-53.66073177360996 L97.29542285648921,-53.584012026715655 L97.04104384678546,-53.49968108127321 L96.78928845907888,-53.407813711125854 L96.54037991768877,-53.308491372449566 L96.29453892271701,-53.20180213152821 L96.05198345435959,-53.08784058666771 L95.81292857962978,-52.96670778431837 L95.57758626166442,-52.838511129479926 L95.3461651717821,-52.703364290468556 L95.11887050446043,-52.56138709813045 L94.89590379539582,-52.41270543959122 L94.67746274280759,-52.25745114663535 L94.4637410321446,-52.09576187881475 L94.25492816434985,-51.92778100138994 L94.05120928783543,-51.753657458212146 L93.85276503431673,-51.573545639659095 L93.65977135865141,-51.3876052457414 L93.47239938282524,-51.19600114450116 L93.29081524422317,-50.99890322582818 L93.11517994831999,-50.796486250823406 L92.94564922592141,-50.588929696843294 L92.78237339508202,-50.37641759836232 L92.62549722782246,-50.159138383794904 L92.47515982176435,-49.93728470842126 L92.33149447679622,-49.71105328356549 L92.19462857688048,-49.480644702177266 L92.06468347710556,-49.24626326097176 L91.9417743960839,-49.008116779285615 L91.82601031379082,-48.76641641480943 L91.71749387493516,-48.52137647636027 L91.61632129794711,-48.27321423386017 L91.52258228966406,-48.02214972568908 L91.43635996579013,-47.768405563583116 L91.35773077719982,-47.51220673525107 L91.28676444215125,-47.25378040488427 L91.22352388446892,-46.9933557117365 L91.16806517775096,-46.731163566952844 L91.12043749565031,-46.467436448827314 L91.08068306827376,-46.20240819667097 L91.04883714473783,-45.936313803473325 L91.02492796191429,-45.66938920754071 L91.00897671939339,-45.401871083296534 L91.00099756068676,-45.13399663142885 L91.00099756068676,-44.866003368571214 L91.00897671939339,-44.59812891670352 L91.02492796191429,-44.33061079245935 L91.04883714473782,-44.06368619652673 L91.08068306827374,-43.797591803329084 L91.1204374956503,-43.53256355117275 L91.16806517775095,-43.26883643304721 L91.2235238844689,-43.00664428826356 L91.28676444215124,-42.7462195951158 L91.3577307771998,-42.48779326474899 L91.4363599657901,-42.23159443641694 L91.52258228966404,-41.977850274310974 L91.6163212979471,-41.72678576613988 L91.71749387493514,-41.47862352363979 L91.82601031379079,-41.23358358519063 L91.94177439608387,-40.99188322071444 L92.06468347710553,-40.75373673902829 L92.19462857688045,-40.51935529782279 L92.3314944767962,-40.288946716434566 L92.47515982176431,-40.0627152915788 L92.62549722782244,-39.840861616205146 L92.78237339508198,-39.62358240163773 L92.94564922592137,-39.411070303156755 L93.11517994831995,-39.20351374917664 L93.29081524422313,-39.00109677417187 L93.4723993828252,-38.80399885549888 L93.65977135865137,-38.612394754258645 L93.85276503431669,-38.42645436034095 L94.05120928783539,-38.2463425417879 L94.25492816434979,-38.072218998610104 L94.46374103214455,-37.90423812118529 L94.67746274280756,-37.74254885336468 L94.89590379539578,-37.58729456040881 L95.1188705044604,-37.43861290186957 L95.34616517178208,-37.29663570953146 L95.5775862616644,-37.16148887052009 L95.81292857962976,-37.03329221568164 L96.05198345435956,-36.912159413332304 L96.29453892271698,-36.798197868471796 L96.54037991768875,-36.69150862755045 L96.78928845907886,-36.592186288874146 L97.04104384678544,-36.50031891872679 L97.29542285648921,-36.415987973284345 L97.5521999375801,-36.33926822639004 L97.81114741314659,-36.270227703254506 L98.07203568185027,-36.20892762013977 L98.33463342150688,-36.155422330080526 L98.59870779419299,-36.109759274690894 L98.86402465269683,-36.071978942099236 L99.13034874812989,-36.04211483104853 L99.3974439385154,-36.020193421193966 L99.66507339816872,-36.00623414962421 L99.93299982768386,-36.00024939362709 L100.20098566434018,-36.00224445971498 L100.46879329274238,-36.01221757891972 L100.73618525550735,-36.03015990836104 L101.00292446381083,-36.05605553908737 L101.26877440760734,-36.08988151018177 L101.53349936533682,-36.131607829120796 L101.79686461293232,-36.18119749836796 L102.05863663194303,-36.23860654817841 L102.31858331658849,-36.30378407558566 L102.5764741795601,-36.376672289535776 L102.83208055638774,-36.45720656212907 L103.08517580818993,-36.545315485923815 L103.33553552262813,-36.64092093725117 L103.58293771288672,-36.74393814548522 L103.82716301450237,-36.85427576820667 L104.06799487986832,-36.971835972193574 L104.30521977024085,-37.09651452016724 L104.5386273450781,-37.228200863216465 L104.76801064854295,-37.36677823881809 L104.9931662930049,-37.51212377436702 L105.21389463937808,-37.66410859612382 L105.4299999741355,-37.822597943483416 L105.64129068284265,-37.98745128846346 L105.8475794200566,-38.158522460306514 L106.04868327543983,-38.335659775085425 L106.2444239359416,-38.518706170197206 L106.434627843903,-38.707499343625926 L106.61912635094573,-38.90187189785129 L106.7977558675076,-39.101651488275216 L106.97035800789288,-39.306660976034934 L107.13677973070833,-39.5167185850669 L107.29687347456058,-39.73163806328246 L107.45049728889472,-39.9512288477123 L107.5975149598577,-40.175296233473155 L107.73779613107536,-40.403641546407066 L107.87121641923561,-40.63606231924013 L107.99765752437564,-40.87235247110442 L108.1170073347751,-41.11230249026403 L108.22916002636235,-41.35569961988313 L108.33401615654567,-41.60232804667141 L108.43148275238613,-41.85196909223955 L108.5214733930341,-42.104401406995116 L108.60390828635607,-42.35940116640691 L108.67871433968418,-42.61674226946384 L108.74582522462522,-42.87619653915219 L108.80518143587234,-43.13753392477367 L108.85673034396656,-43.400522705924836 L108.90042624196182,-43.66492969795695 L108.93623038595211,-43.93052045873414 L108.96411102942449,-44.19705949650656 L108.98404345140787,-44.464310478714225 L108.9960099783924,-44.7320364415363 L109.0,-45.000000000000234 " />
			<path d="M-91.0,45.0 L-91.00399002160762,44.732036441536074 L-91.01595654859214,44.46431047871399 L-91.03588897057554,44.197059496506334 L-91.06376961404791,43.930520458733916 L-91.0995737580382,43.66492969795673 L-91.14326965603348,43.40052270592462 L-91.1948185641277,43.13753392477346 L-91.25417477537482,42.876196539151984 L-91.32128566031588,42.61674226946365 L-91.39609171364398,42.35940116640672 L-91.47852660696596,42.104401406994924 L-91.56851724761393,41.851969092239365 L-91.6659838434544,41.60232804667123 L-91.77083997363772,41.355699619882955 L-91.88299266522498,41.112302490263865 L-92.00234247562445,40.872352471104264 L-92.12878358076448,40.636062319239976 L-92.26220386892473,40.40364154640692 L-92.40248504014238,40.17529623347301 L-92.54950271110538,39.951228847712166 L-92.70312652543952,39.73163806328233 L-92.86322026929177,39.51671858506677 L-93.0296419921072,39.30666097603481 L-93.2022441324925,39.1016514882751 L-93.38087364905437,38.90187189785118 L-93.56537215609708,38.70749934362583 L-93.75557606405852,38.51870617019711 L-93.95131672456027,38.33565977508533 L-94.1524205799435,38.15852246030643 L-94.35870931715745,37.98745128846338 L-94.5700000258646,37.82259794348334 L-94.78610536062202,37.66410859612375 L-95.00683370699518,37.512123774366955 L-95.23198935145714,37.366778238818036 L-95.46137265492199,37.228200863216415 L-95.69478022975923,37.09651452016719 L-95.93200512013176,36.97183597219353 L-96.17283698549771,36.85427576820663 L-96.41706228711337,36.74393814548518 L-96.66446447737195,36.64092093725114 L-96.91482419181015,36.54531548592379 L-97.16791944361233,36.45720656212905 L-97.42352582043998,36.37667228953576 L-97.68141668341158,36.30378407558564 L-97.94136336805703,36.238606548178396 L-98.20313538706773,36.18119749836794 L-98.46650063466323,36.13160782912079 L-98.73122559239272,36.08988151018176 L-98.99707553618921,36.05605553908736 L-99.26381474449269,36.03015990836104 L-99.53120670725767,36.01221757891972 L-99.79901433565986,36.00224445971498 L-100.06700017231617,36.00024939362709 L-100.33492660183133,36.00623414962421 L-100.60255606148463,36.020193421193966 L-100.86965125187014,36.04211483104853 L-101.13597534730319,36.071978942099236 L-101.40129220580702,36.1097592746909 L-101.66536657849313,36.15542233008053 L-101.92796431814973,36.20892762013977 L-102.18885258685343,36.270227703254506 L-102.4478000624199,36.33926822639004 L-102.70457714351079,36.415987973284345 L-102.95895615321454,36.50031891872679 L-103.21071154092112,36.592186288874146 L-103.45962008231123,36.691508627550434 L-103.70546107728299,36.79819786847179 L-103.94801654564041,36.91215941333229 L-104.18707142037022,37.03329221568163 L-104.42241373833558,37.161488870520074 L-104.6538348282179,37.296635709531444 L-104.88112949553957,37.43861290186955 L-105.10409620460418,37.58729456040878 L-105.32253725719241,37.74254885336465 L-105.5362589678554,37.90423812118525 L-105.74507183565015,38.07221899861006 L-105.94879071216457,38.246342541787854 L-106.14723496568327,38.426454360340905 L-106.34022864134859,38.6123947542586 L-106.52760061717476,38.80399885549884 L-106.70918475577683,39.00109677417182 L-106.88482005168001,39.203513749176594 L-107.05435077407859,39.411070303156706 L-107.21762660491798,39.62358240163768 L-107.37450277217754,39.840861616205096 L-107.52484017823565,40.06271529157874 L-107.66850552320378,40.28894671643451 L-107.80537142311952,40.519355297822734 L-107.93531652289444,40.75373673902824 L-108.0582256039161,40.991883220714385 L-108.17398968620918,41.23358358519057 L-108.28250612506484,41.47862352363973 L-108.38367870205289,41.72678576613983 L-108.47741771033594,41.97785027431092 L-108.56364003420987,42.231594436416884 L-108.64226922280018,42.48779326474893 L-108.71323555784875,42.74621959511573 L-108.77647611553108,43.0066442882635 L-108.83193482224904,43.268836433047156 L-108.87956250434969,43.532563551172686 L-108.91931693172624,43.79759180332903 L-108.95116285526217,44.063686196526675 L-108.97507203808571,44.33061079245929 L-108.99102328060661,44.598128916703466 L-108.99900243931324,44.86600336857115 L-108.99900243931324,45.133996631428786 L-108.99102328060661,45.40187108329648 L-108.97507203808571,45.66938920754065 L-108.95116285526218,45.93631380347327 L-108.91931693172626,46.202408196670916 L-108.8795625043497,46.46743644882725 L-108.83193482224905,46.73116356695279 L-108.7764761155311,46.99335571173644 L-108.71323555784876,47.2537804048842 L-108.6422692228002,47.51220673525101 L-108.5636400342099,47.76840556358306 L-108.47741771033596,48.022149725689026 L-108.3836787020529,48.27321423386012 L-108.28250612506486,48.52137647636021 L-108.17398968620921,48.76641641480937 L-108.05822560391613,49.00811677928556 L-107.93531652289447,49.24626326097171 L-107.80537142311955,49.48064470217721 L-107.6685055232038,49.711053283565434 L-107.52484017823569,49.9372847084212 L-107.37450277217756,50.159138383794854 L-107.21762660491802,50.37641759836227 L-107.05435077407863,50.588929696843245 L-106.88482005168005,50.79648625082336 L-106.70918475577687,50.99890322582813 L-106.5276006171748,51.19600114450112 L-106.34022864134863,51.387605245741355 L-106.14723496568331,51.57354563965905 L-105.94879071216461,51.7536574582121 L-105.74507183565021,51.927781001389896 L-105.53625896785545,52.09576187881471 L-105.32253725719244,52.25745114663532 L-105.10409620460422,52.41270543959119 L-104.8811294955396,52.56138709813043 L-104.65383482821792,52.70336429046854 L-104.4224137383356,52.83851112947991 L-104.18707142037024,52.96670778431836 L-103.94801654564044,53.087840586667696 L-103.70546107728302,53.201802131528204 L-103.45962008231125,53.30849137244955 L-103.21071154092114,53.407813711125854 L-102.95895615321456,53.49968108127321 L-102.70457714351079,53.584012026715655 L-102.4478000624199,53.66073177360996 L-102.18885258685341,53.729772296745494 L-101.92796431814973,53.79107237986023 L-101.66536657849312,53.844577669919474 L-101.40129220580701,53.890240725309106 L-101.13597534730317,53.928021057900764 L-100.86965125187011,53.95788516895147 L-100.6025560614846,53.979806578806034 L-100.33492660183128,53.99376585037579 L-100.06700017231614,53.99975060637291 L-99.79901433565982,53.99775554028502 L-99.53120670725762,53.98778242108028 L-99.26381474449265,53.96984009163896 L-98.99707553618917,53.94394446091263 L-98.73122559239266,53.91011848981823 L-98.46650063466318,53.868392170879204 L-98.20313538706768,53.81880250163204 L-97.94136336805697,53.76139345182159 L-97.68141668341151,53.69621592441434 L-97.4235258204399,53.623327710464224 L-97.16791944361226,53.54279343787093 L-96.91482419181007,53.454684514076185 L-96.66446447737187,53.35907906274883 L-96.41706228711328,53.25606185451478 L-96.17283698549763,53.14572423179333 L-95.93200512013168,53.028164027806426 L-95.69478022975915,52.90348547983276 L-95.4613726549219,52.771799136783535 L-95.23198935145705,52.63322176118191 L-95.0068337069951,52.48787622563298 L-94.78610536062192,52.33589140387618 L-94.5700000258645,52.177402056516584 L-94.35870931715735,52.01254871153654 L-94.1524205799434,51.841477539693486 L-93.95131672456017,51.664340224914575 L-93.7555760640584,51.481293829802794 L-93.565372156097,51.292500656374074 L-93.38087364905427,51.09812810214871 L-93.2022441324924,50.898348511724784 L-93.02964199210712,50.693339023965066 L-92.86322026929167,50.4832814149331 L-92.70312652543942,50.26836193671754 L-92.54950271110528,50.0487711522877 L-92.4024850401423,49.824703766526845 L-92.26220386892464,49.596358453592934 L-92.12878358076439,49.36393768075987 L-92.00234247562436,49.12764752889558 L-91.8829926652249,48.88769750973597 L-91.77083997363765,48.64430038011687 L-91.66598384345433,48.39767195332859 L-91.56851724761387,48.14803090776045 L-91.4785266069659,47.895598593004884 L-91.39609171364393,47.64059883359309 L-91.32128566031582,47.38325773053616 L-91.25417477537478,47.12380346084781 L-91.19481856412766,46.86246607522633 L-91.14326965603344,46.599477294075164 L-91.09957375803818,46.33507030204305 L-91.06376961404789,46.06947954126586 L-91.03588897057551,45.80294050349344 L-91.01595654859213,45.535689521285775 L-91.0039900216076,45.2679635584637 L-91.0,44.999999999999766 " />
			<path d="M109.0,45.0 L108.99600997839238,44.732036441536074 L108.98404345140786,44.46431047871399 L108.96411102942446,44.197059496506334 L108.93623038595209,43.930520458733916 L108.9004262419618,43.66492969795673 L108.85673034396652,43.40052270592462 L108.8051814358723,43.13753392477346 L108.74582522462518,42.876196539151984 L108.67871433968412,42.61674226946365 L108.60390828635602,42.35940116640672 L108.52147339303404,42.104401406994924 L108.43148275238607,41.851969092239365 L108.3340161565456,41.60232804667123 L108.22916002636228,41.355699619882955 L108.11700733477502,41.112302490263865 L107.99765752437555,40.872352471104264 L107.87121641923552,40.636062319239976 L107.73779613107527,40.40364154640692 L107.59751495985762,40.17529623347301 L107.45049728889462,39.951228847712166 L107.29687347456048,39.73163806328233 L107.13677973070823,39.51671858506677 L106.9703580078928,39.30666097603481 L106.7977558675075,39.1016514882751 L106.61912635094563,38.90187189785118 L106.43462784390292,38.70749934362583 L106.24442393594148,38.51870617019711 L106.04868327543973,38.33565977508533 L105.8475794200565,38.15852246030643 L105.64129068284255,37.98745128846338 L105.4299999741354,37.82259794348334 L105.21389463937798,37.66410859612375 L104.99316629300482,37.512123774366955 L104.76801064854286,37.366778238818036 L104.53862734507801,37.228200863216415 L104.30521977024077,37.09651452016719 L104.06799487986824,36.97183597219353 L103.82716301450229,36.85427576820663 L103.58293771288663,36.74393814548518 L103.33553552262805,36.64092093725114 L103.08517580818985,36.54531548592379 L102.83208055638767,36.45720656212905 L102.57647417956002,36.37667228953576 L102.31858331658842,36.30378407558564 L102.05863663194297,36.238606548178396 L101.79686461293227,36.18119749836794 L101.53349936533677,36.13160782912079 L101.26877440760728,36.08988151018176 L101.00292446381079,36.05605553908736 L100.73618525550731,36.03015990836104 L100.46879329274233,36.01221757891972 L100.20098566434014,36.00224445971498 L99.93299982768383,36.00024939362709 L99.66507339816867,36.00623414962421 L99.39744393851537,36.020193421193966 L99.13034874812986,36.04211483104853 L98.86402465269681,36.071978942099236 L98.59870779419298,36.1097592746909 L98.33463342150687,36.15542233008053 L98.07203568185027,36.20892762013977 L97.81114741314657,36.270227703254506 L97.5521999375801,36.33926822639004 L97.29542285648921,36.415987973284345 L97.04104384678546,36.50031891872679 L96.78928845907888,36.592186288874146 L96.54037991768877,36.691508627550434 L96.29453892271701,36.79819786847179 L96.05198345435959,36.91215941333229 L95.81292857962978,37.03329221568163 L95.57758626166442,37.161488870520074 L95.3461651717821,37.296635709531444 L95.11887050446043,37.43861290186955 L94.89590379539582,37.58729456040878 L94.67746274280759,37.74254885336465 L94.4637410321446,37.90423812118525 L94.25492816434985,38.07221899861006 L94.05120928783543,38.246342541787854 L93.85276503431673,38.426454360340905 L93.65977135865141,38.6123947542586 L93.47239938282524,38.80399885549884 L93.29081524422317,39.00109677417182 L93.11517994831999,39.203513749176594 L92.94564922592141,39.411070303156706 L92.78237339508202,39.62358240163768 L92.62549722782246,39.840861616205096 L92.47515982176435,40.06271529157874 L92.33149447679622,40.28894671643451 L92.19462857688048,40.519355297822734 L92.06468347710556,40.75373673902824 L91.9417743960839,40.991883220714385 L91.82601031379082,41.23358358519057 L91.71749387493516,41.47862352363973 L91.61632129794711,41.72678576613983 L91.52258228966406,41.97785027431092 L91.43635996579013,42.231594436416884 L91.35773077719982,42.48779326474893 L91.28676444215125,42.74621959511573 L91.22352388446892,43.0066442882635 L91.16806517775096,43.268836433047156 L91.12043749565031,43.532563551172686 L91.08068306827376,43.79759180332903 L91.04883714473783,44.063686196526675 L91.02492796191429,44.33061079245929 L91.00897671939339,44.598128916703466 L91.00099756068676,44.86600336857115 L91.00099756068676,45.133996631428786 L91.00897671939339,45.40187108329648 L91.02492796191429,45.66938920754065 L91.04883714473782,45.93631380347327 L91.08068306827374,46.202408196670916 L91.1204374956503,46.46743644882725 L91.16806517775095,46.73116356695279 L91.2235238844689,46.99335571173644 L91.28676444215124,47.2537804048842 L91.3577307771998,47.51220673525101 L91.4363599657901,47.76840556358306 L91.52258228966404,48.022149725689026 L91.6163212979471,48.27321423386012 L91.71749387493514,48.52137647636021 L91.82601031379079,48.76641641480937 L91.94177439608387,49.00811677928556 L92.06468347710553,49.24626326097171 L92.19462857688045,49.48064470217721 L92.3314944767962,49.711053283565434 L92.47515982176431,49.9372847084212 L92.62549722782244,50.159138383794854 L92.78237339508198,50.37641759836227 L92.94564922592137,50.588929696843245 L93.11517994831995,50.79648625082336 L93.29081524422313,50.99890322582813 L93.4723993828252,51.19600114450112 L93.65977135865137,51.387605245741355 L93.85276503431669,51.57354563965905 L94.05120928783539,51.7536574582121 L94.25492816434979,51.927781001389896 L94.46374103214455,52.09576187881471 L94.67746274280756,52.25745114663532 L94.89590379539578,52.41270543959119 L95.1188705044604,52.56138709813043 L95.34616517178208,52.70336429046854 L95.5775862616644,52.83851112947991 L95.81292857962976,52.96670778431836 L96.05198345435956,53.087840586667696 L96.29453892271698,53.201802131528204 L96.54037991768875,53.30849137244955 L96.78928845907886,53.407813711125854 L97.04104384678544,53.49968108127321 L97.29542285648921,53.584012026715655 L97.5521999375801,53.66073177360996 L97.81114741314659,53.729772296745494 L98.07203568185027,53.79107237986023 L98.33463342150688,53.844577669919474 L98.59870779419299,53.890240725309106 L98.86402465269683,53.928021057900764 L99.13034874812989,53.95788516895147 L99.3974439385154,53.979806578806034 L99.66507339816872,53.99376585037579 L99.93299982768386,53.99975060637291 L100.20098566434018,53.99775554028502 L100.46879329274238,53.98778242108028 L100.73618525550735,53.96984009163896 L101.00292446381083,53.94394446091263 L101.26877440760734,53.91011848981823 L101.53349936533682,53.868392170879204 L101.79686461293232,53.81880250163204 L102.05863663194303,53.76139345182159 L102.31858331658849,53.69621592441434 L102.5764741795601,53.623327710464224 L102.83208055638774,53.54279343787093 L103.08517580818993,53.454684514076185 L103.33553552262813,53.35907906274883 L103.58293771288672,53.25606185451478 L103.82716301450237,53.14572423179333 L104.06799487986832,53.028164027806426 L104.30521977024085,52.90348547983276 L104.5386273450781,52.771799136783535 L104.76801064854295,52.63322176118191 L104.9931662930049,52.48787622563298 L105.21389463937808,52.33589140387618 L105.4299999741355,52.177402056516584 L105.64129068284265,52.01254871153654 L105.8475794200566,51.841477539693486 L106.04868327543983,51.664340224914575 L106.2444239359416,51.481293829802794 L106.434627843903,51.292500656374074 L106.61912635094573,51.09812810214871 L106.7977558675076,50.898348511724784 L106.97035800789288,50.693339023965066 L107.13677973070833,50.4832814149331 L107.29687347456058,50.26836193671754 L107.45049728889472,50.0487711522877 L107.5975149598577,49.824703766526845 L107.73779613107536,49.596358453592934 L107.87121641923561,49.36393768075987 L107.99765752437564,49.12764752889558 L108.1170073347751,48.88769750973597 L108.22916002636235,48.64430038011687 L108.33401615654567,48.39767195332859 L108.43148275238613,48.14803090776045 L108.5214733930341,47.895598593004884 L108.60390828635607,47.64059883359309 L108.67871433968418,47.38325773053616 L108.74582522462522,47.12380346084781 L108.80518143587234,46.86246607522633 L108.85673034396656,46.599477294075164 L108.90042624196182,46.33507030204305 L108.93623038595211,46.06947954126586 L108.96411102942449,45.80294050349344 L108.98404345140787,45.535689521285775 L108.9960099783924,45.2679635584637 L109.0,44.999999999999766 " />

       </g>

       <!-- solid lines -->
       <g  stroke="rgb(37,76,110)" fill="none">
			<path d="M-130.0,-70.0 L-130.0,70.0 " />
			<path d="M-130.0,-70.0 L130.0,-70.0 " />
			<path d="M-130.0,70.0 L130.0,70.0 " />
			<path d="M130.0,-70.0 L130.0,70.0 " />
			<path d="M-91.0,-45.0 L-91.00399002160762,-45.267963558463926 L-91.01595654859214,-45.53568952128601 L-91.03588897057554,-45.802940503493666 L-91.06376961404791,-46.069479541266084 L-91.0995737580382,-46.33507030204327 L-91.14326965603348,-46.59947729407538 L-91.1948185641277,-46.86246607522654 L-91.25417477537482,-47.123803460848016 L-91.32128566031588,-47.38325773053635 L-91.39609171364398,-47.64059883359328 L-91.47852660696596,-47.895598593005076 L-91.56851724761393,-48.148030907760635 L-91.6659838434544,-48.39767195332877 L-91.77083997363772,-48.644300380117045 L-91.88299266522498,-48.887697509736135 L-92.00234247562445,-49.127647528895736 L-92.12878358076448,-49.363937680760024 L-92.26220386892473,-49.59635845359308 L-92.40248504014238,-49.82470376652699 L-92.54950271110538,-50.048771152287834 L-92.70312652543952,-50.26836193671767 L-92.86322026929177,-50.48328141493323 L-93.0296419921072,-50.69333902396519 L-93.2022441324925,-50.8983485117249 L-93.38087364905437,-51.09812810214882 L-93.56537215609708,-51.29250065637417 L-93.75557606405852,-51.48129382980289 L-93.95131672456027,-51.66434022491467 L-94.1524205799435,-51.84147753969357 L-94.35870931715745,-52.01254871153662 L-94.5700000258646,-52.17740205651666 L-94.78610536062202,-52.33589140387625 L-95.00683370699518,-52.487876225633045 L-95.23198935145714,-52.633221761181964 L-95.46137265492199,-52.771799136783585 L-95.69478022975923,-52.90348547983281 L-95.93200512013176,-53.02816402780647 L-96.17283698549771,-53.14572423179337 L-96.41706228711337,-53.25606185451482 L-96.66446447737195,-53.35907906274886 L-96.91482419181015,-53.45468451407621 L-97.16791944361233,-53.54279343787095 L-97.42352582043998,-53.62332771046424 L-97.68141668341158,-53.69621592441436 L-97.94136336805703,-53.761393451821604 L-98.20313538706773,-53.81880250163206 L-98.46650063466323,-53.86839217087921 L-98.73122559239272,-53.91011848981824 L-98.99707553618921,-53.94394446091264 L-99.26381474449269,-53.96984009163896 L-99.53120670725767,-53.98778242108028 L-99.79901433565986,-53.99775554028502 L-100.06700017231617,-53.99975060637291 L-100.33492660183133,-53.99376585037579 L-100.60255606148463,-53.979806578806034 L-100.86965125187014,-53.95788516895147 L-101.13597534730319,-53.928021057900764 L-101.40129220580702,-53.8902407253091 L-101.66536657849313,-53.84457766991947 L-101.92796431814973,-53.79107237986023 L-102.18885258685343,-53.729772296745494 L-102.4478000624199,-53.66073177360996 L-102.70457714351079,-53.584012026715655 L-102.95895615321454,-53.49968108127321 L-103.21071154092112,-53.407813711125854 L-103.45962008231123,-53.308491372449566 L-103.70546107728299,-53.20180213152821 L-103.94801654564041,-53.08784058666771 L-104.18707142037022,-52.96670778431837 L-104.42241373833558,-52.838511129479926 L-104.6538348282179,-52.703364290468556 L-104.88112949553957,-52.56138709813045 L-105.10409620460418,-52.41270543959122 L-105.32253725719241,-52.25745114663535 L-105.5362589678554,-52.09576187881475 L-105.74507183565015,-51.92778100138994 L-105.94879071216457,-51.753657458212146 L-106.14723496568327,-51.573545639659095 L-106.34022864134859,-51.3876052457414 L-106.52760061717476,-51.19600114450116 L-106.70918475577683,-50.99890322582818 L-106.88482005168001,-50.796486250823406 L-107.05435077407859,-50.588929696843294 L-107.21762660491798,-50.37641759836232 L-107.37450277217754,-50.159138383794904 L-107.52484017823565,-49.93728470842126 L-107.66850552320378,-49.71105328356549 L-107.80537142311952,-49.480644702177266 L-107.93531652289444,-49.24626326097176 L-108.0582256039161,-49.008116779285615 L-108.17398968620918,-48.76641641480943 L-108.28250612506484,-48.52137647636027 L-108.38367870205289,-48.27321423386017 L-108.47741771033594,-48.02214972568908 L-108.56364003420987,-47.768405563583116 L-108.64226922280018,-47.51220673525107 L-108.71323555784875,-47.25378040488427 L-108.77647611553108,-46.9933557117365 L-108.83193482224904,-46.731163566952844 L-108.87956250434969,-46.467436448827314 L-108.91931693172624,-46.20240819667097 L-108.95116285526217,-45.936313803473325 L-108.97507203808571,-45.66938920754071 L-108.99102328060661,-45.401871083296534 L-108.99900243931324,-45.13399663142885 L-108.99900243931324,-44.866003368571214 L-108.99102328060661,-44.59812891670352 L-108.97507203808571,-44.33061079245935 L-108.95116285526218,-44.06368619652673 L-108.91931693172626,-43.797591803329084 L-108.8795625043497,-43.53256355117275 L-108.83193482224905,-43.26883643304721 L-108.7764761155311,-43.00664428826356 L-108.71323555784876,-42.7462195951158 L-108.6422692228002,-42.48779326474899 L-108.5636400342099,-42.23159443641694 L-108.47741771033596,-41.977850274310974 L-108.3836787020529,-41.72678576613988 L-108.28250612506486,-41.47862352363979 L-108.17398968620921,-41.23358358519063 L-108.05822560391613,-40.99188322071444 L-107.93531652289447,-40.75373673902829 L-107.80537142311955,-40.51935529782279 L-107.6685055232038,-40.288946716434566 L-107.52484017823569,-40.0627152915788 L-107.37450277217756,-39.840861616205146 L-107.21762660491802,-39.62358240163773 L-107.05435077407863,-39.411070303156755 L-106.88482005168005,-39.20351374917664 L-106.70918475577687,-39.00109677417187 L-106.5276006171748,-38.80399885549888 L-106.34022864134863,-38.612394754258645 L-106.14723496568331,-38.42645436034095 L-105.94879071216461,-38.2463425417879 L-105.74507183565021,-38.072218998610104 L-105.53625896785545,-37.90423812118529 L-105.32253725719244,-37.74254885336468 L-105.10409620460422,-37.58729456040881 L-104.8811294955396,-37.43861290186957 L-104.65383482821792,-37.29663570953146 L-104.4224137383356,-37.16148887052009 L-104.18707142037024,-37.03329221568164 L-103.94801654564044,-36.912159413332304 L-103.70546107728302,-36.798197868471796 L-103.45962008231125,-36.69150862755045 L-103.21071154092114,-36.592186288874146 L-102.95895615321456,-36.50031891872679 L-102.70457714351079,-36.415987973284345 L-102.4478000624199,-36.33926822639004 L-102.18885258685341,-36.270227703254506 L-101.92796431814973,-36.20892762013977 L-101.66536657849312,-36.155422330080526 L-101.40129220580701,-36.109759274690894 L-101.13597534730317,-36.071978942099236 L-100.86965125187011,-36.04211483104853 L-100.6025560614846,-36.020193421193966 L-100.33492660183128,-36.00623414962421 L-100.06700017231614,-36.00024939362709 L-99.79901433565982,-36.00224445971498 L-99.53120670725762,-36.01221757891972 L-99.26381474449265,-36.03015990836104 L-98.99707553618917,-36.05605553908737 L-98.73122559239266,-36.08988151018177 L-98.46650063466318,-36.131607829120796 L-98.20313538706768,-36.18119749836796 L-97.94136336805697,-36.23860654817841 L-97.68141668341151,-36.30378407558566 L-97.4235258204399,-36.376672289535776 L-97.16791944361226,-36.45720656212907 L-96.91482419181007,-36.545315485923815 L-96.66446447737187,-36.64092093725117 L-96.41706228711328,-36.74393814548522 L-96.17283698549763,-36.85427576820667 L-95.93200512013168,-36.971835972193574 L-95.69478022975915,-37.09651452016724 L-95.4613726549219,-37.228200863216465 L-95.23198935145705,-37.36677823881809 L-95.0068337069951,-37.51212377436702 L-94.78610536062192,-37.66410859612382 L-94.5700000258645,-37.822597943483416 L-94.35870931715735,-37.98745128846346 L-94.1524205799434,-38.158522460306514 L-93.95131672456017,-38.335659775085425 L-93.7555760640584,-38.518706170197206 L-93.565372156097,-38.707499343625926 L-93.38087364905427,-38.90187189785129 L-93.2022441324924,-39.101651488275216 L-93.02964199210712,-39.306660976034934 L-92.86322026929167,-39.5167185850669 L-92.70312652543942,-39.73163806328246 L-92.54950271110528,-39.9512288477123 L-92.4024850401423,-40.175296233473155 L-92.26220386892464,-40.403641546407066 L-92.12878358076439,-40.63606231924013 L-92.00234247562436,-40.87235247110442 L-91.8829926652249,-41.11230249026403 L-91.77083997363765,-41.35569961988313 L-91.66598384345433,-41.60232804667141 L-91.56851724761387,-41.85196909223955 L-91.4785266069659,-42.104401406995116 L-91.39609171364393,-42.35940116640691 L-91.32128566031582,-42.61674226946384 L-91.25417477537478,-42.87619653915219 L-91.19481856412766,-43.13753392477367 L-91.14326965603344,-43.400522705924836 L-91.09957375803818,-43.66492969795695 L-91.06376961404789,-43.93052045873414 L-91.03588897057551,-44.19705949650656 L-91.01595654859213,-44.464310478714225 L-91.0039900216076,-44.7320364415363 L-91.0,-45.000000000000234 " />
			<path d="M109.0,-45.0 L108.99600997839238,-45.267963558463926 L108.98404345140786,-45.53568952128601 L108.96411102942446,-45.802940503493666 L108.93623038595209,-46.069479541266084 L108.9004262419618,-46.33507030204327 L108.85673034396652,-46.59947729407538 L108.8051814358723,-46.86246607522654 L108.74582522462518,-47.123803460848016 L108.67871433968412,-47.38325773053635 L108.60390828635602,-47.64059883359328 L108.52147339303404,-47.895598593005076 L108.43148275238607,-48.148030907760635 L108.3340161565456,-48.39767195332877 L108.22916002636228,-48.644300380117045 L108.11700733477502,-48.887697509736135 L107.99765752437555,-49.127647528895736 L107.87121641923552,-49.363937680760024 L107.73779613107527,-49.59635845359308 L107.59751495985762,-49.82470376652699 L107.45049728889462,-50.048771152287834 L107.29687347456048,-50.26836193671767 L107.13677973070823,-50.48328141493323 L106.9703580078928,-50.69333902396519 L106.7977558675075,-50.8983485117249 L106.61912635094563,-51.09812810214882 L106.43462784390292,-51.29250065637417 L106.24442393594148,-51.48129382980289 L106.04868327543973,-51.66434022491467 L105.8475794200565,-51.84147753969357 L105.64129068284255,-52.01254871153662 L105.4299999741354,-52.17740205651666 L105.21389463937798,-52.33589140387625 L104.99316629300482,-52.487876225633045 L104.76801064854286,-52.633221761181964 L104.53862734507801,-52.771799136783585 L104.30521977024077,-52.90348547983281 L104.06799487986824,-53.02816402780647 L103.82716301450229,-53.14572423179337 L103.58293771288663,-53.25606185451482 L103.33553552262805,-53.35907906274886 L103.08517580818985,-53.45468451407621 L102.83208055638767,-53.54279343787095 L102.57647417956002,-53.62332771046424 L102.31858331658842,-53.69621592441436 L102.05863663194297,-53.761393451821604 L101.79686461293227,-53.81880250163206 L101.53349936533677,-53.86839217087921 L101.26877440760728,-53.91011848981824 L101.00292446381079,-53.94394446091264 L100.73618525550731,-53.96984009163896 L100.46879329274233,-53.98778242108028 L100.20098566434014,-53.99775554028502 L99.93299982768383,-53.99975060637291 L99.66507339816867,-53.99376585037579 L99.39744393851537,-53.979806578806034 L99.13034874812986,-53.95788516895147 L98.86402465269681,-53.928021057900764 L98.59870779419298,-53.8902407253091 L98.33463342150687,-53.84457766991947 L98.07203568185027,-53.79107237986023 L97.81114741314657,-53.729772296745494 L97.5521999375801,-53.66073177360996 L97.29542285648921,-53.584012026715655 L97.04104384678546,-53.49968108127321 L96.78928845907888,-53.407813711125854 L96.54037991768877,-53.308491372449566 L96.29453892271701,-53.20180213152821 L96.05198345435959,-53.08784058666771 L95.81292857962978,-52.96670778431837 L95.57758626166442,-52.838511129479926 L95.3461651717821,-52.703364290468556 L95.11887050446043,-52.56138709813045 L94.89590379539582,-52.41270543959122 L94.67746274280759,-52.25745114663535 L94.4637410321446,-52.09576187881475 L94.25492816434985,-51.92778100138994 L94.05120928783543,-51.753657458212146 L93.85276503431673,-51.573545639659095 L93.65977135865141,-51.3876052457414 L93.47239938282524,-51.19600114450116 L93.29081524422317,-50.99890322582818 L93.11517994831999,-50.796486250823406 L92.94564922592141,-50.588929696843294 L92.78237339508202,-50.37641759836232 L92.62549722782246,-50.159138383794904 L92.47515982176435,-49.93728470842126 L92.33149447679622,-49.71105328356549 L92.19462857688048,-49.480644702177266 L92.06468347710556,-49.24626326097176 L91.9417743960839,-49.008116779285615 L91.82601031379082,-48.76641641480943 L91.71749387493516,-48.52137647636027 L91.61632129794711,-48.27321423386017 L91.52258228966406,-48.02214972568908 L91.43635996579013,-47.768405563583116 L91.35773077719982,-47.51220673525107 L91.28676444215125,-47.25378040488427 L91.22352388446892,-46.9933557117365 L91.16806517775096,-46.731163566952844 L91.12043749565031,-46.467436448827314 L91.08068306827376,-46.20240819667097 L91.04883714473783,-45.936313803473325 L91.02492796191429,-45.66938920754071 L91.00897671939339,-45.401871083296534 L91.00099756068676,-45.13399663142885 L91.00099756068676,-44.866003368571214 L91.00897671939339,-44.59812891670352 L91.02492796191429,-44.33061079245935 L91.04883714473782,-44.06368619652673 L91.08068306827374,-43.797591803329084 L91.1204374956503,-43.53256355117275 L91.16806517775095,-43.26883643304721 L91.2235238844689,-43.00664428826356 L91.28676444215124,-42.7462195951158 L91.3577307771998,-42.48779326474899 L91.4363599657901,-42.23159443641694 L91.52258228966404,-41.977850274310974 L91.6163212979471,-41.72678576613988 L91.71749387493514,-41.47862352363979 L91.82601031379079,-41.23358358519063 L91.94177439608387,-40.99188322071444 L92.06468347710553,-40.75373673902829 L92.19462857688045,-40.51935529782279 L92.3314944767962,-40.288946716434566 L92.47515982176431,-40.0627152915788 L92.62549722782244,-39.840861616205146 L92.78237339508198,-39.62358240163773 L92.94564922592137,-39.411070303156755 L93.11517994831995,-39.20351374917664 L93.29081524422313,-39.00109677417187 L93.4723993828252,-38.80399885549888 L93.65977135865137,-38.612394754258645 L93.85276503431669,-38.42645436034095 L94.05120928783539,-38.2463425417879 L94.25492816434979,-38.072218998610104 L94.46374103214455,-37.90423812118529 L94.67746274280756,-37.74254885336468 L94.89590379539578,-37.58729456040881 L95.1188705044604,-37.43861290186957 L95.34616517178208,-37.29663570953146 L95.5775862616644,-37.16148887052009 L95.81292857962976,-37.03329221568164 L96.05198345435956,-36.912159413332304 L96.29453892271698,-36.798197868471796 L96.54037991768875,-36.69150862755045 L96.78928845907886,-36.592186288874146 L97.04104384678544,-36.50031891872679 L97.29542285648921,-36.415987973284345 L97.5521999375801,-36.33926822639004 L97.81114741314659,-36.270227703254506 L98.07203568185027,-36.20892762013977 L98.33463342150688,-36.155422330080526 L98.59870779419299,-36.109759274690894 L98.86402465269683,-36.071978942099236 L99.13034874812989,-36.04211483104853 L99.3974439385154,-36.020193421193966 L99.66507339816872,-36.00623414962421 L99.93299982768386,-36.00024939362709 L100.20098566434018,-36.00224445971498 L100.46879329274238,-36.01221757891972 L100.73618525550735,-36.03015990836104 L101.00292446381083,-36.05605553908737 L101.26877440760734,-36.08988151018177 L101.53349936533682,-36.131607829120796 L101.79686461293232,-36.18119749836796 L102.05863663194303,-36.23860654817841 L102.31858331658849,-36.30378407558566 L102.5764741795601,-36.376672289535776 L102.83208055638774,-36.45720656212907 L103.08517580818993,-36.545315485923815 L103.33553552262813,-36.64092093725117 L103.58293771288672,-36.74393814548522 L103.82716301450237,-36.85427576820667 L104.06799487986832,-36.971835972193574 L104.30521977024085,-37.09651452016724 L104.5386273450781,-37.228200863216465 L104.76801064854295,-37.36677823881809 L104.9931662930049,-37.51212377436702 L105.21389463937808,-37.66410859612382 L105.4299999741355,-37.822597943483416 L105.64129068284265,-37.98745128846346 L105.8475794200566,-38.158522460306514 L106.04868327543983,-38.335659775085425 L106.2444239359416,-38.518706170197206 L106.434627843903,-38.707499343625926 L106.61912635094573,-38.90187189785129 L106.7977558675076,-39.101651488275216 L106.97035800789288,-39.306660976034934 L107.13677973070833,-39.5167185850669 L107.29687347456058,-39.73163806328246 L107.45049728889472,-39.9512288477123 L107.5975149598577,-40.175296233473155 L107.73779613107536,-40.403641546407066 L107.87121641923561,-40.63606231924013 L107.99765752437564,-40.87235247110442 L108.1170073347751,-41.11230249026403 L108.22916002636235,-41.35569961988313 L108.33401615654567,-41.60232804667141 L108.43148275238613,-41.85196909223955 L108.5214733930341,-42.104401406995116 L108.60390828635607,-42.35940116640691 L108.67871433968418,-42.61674226946384 L108.74582522462522,-42.87619653915219 L108.80518143587234,-43.13753392477367 L108.85673034396656,-43.400522705924836 L108.90042624196182,-43.66492969795695 L108.93623038595211,-43.93052045873414 L108.96411102942449,-44.19705949650656 L108.98404345140787,-44.464310478714225 L108.9960099783924,-44.7320364415363 L109.0,-45.000000000000234 " />
			<path d="M-91.0,45.0 L-91.00399002160762,44.732036441536074 L-91.01595654859214,44.46431047871399 L-91.03588897057554,44.197059496506334 L-91.06376961404791,43.930520458733916 L-91.0995737580382,43.66492969795673 L-91.14326965603348,43.40052270592462 L-91.1948185641277,43.13753392477346 L-91.25417477537482,42.876196539151984 L-91.32128566031588,42.61674226946365 L-91.39609171364398,42.35940116640672 L-91.47852660696596,42.104401406994924 L-91.56851724761393,41.851969092239365 L-91.6659838434544,41.60232804667123 L-91.77083997363772,41.355699619882955 L-91.88299266522498,41.112302490263865 L-92.00234247562445,40.872352471104264 L-92.12878358076448,40.636062319239976 L-92.26220386892473,40.40364154640692 L-92.40248504014238,40.17529623347301 L-92.54950271110538,39.951228847712166 L-92.70312652543952,39.73163806328233 L-92.86322026929177,39.51671858506677 L-93.0296419921072,39.30666097603481 L-93.2022441324925,39.1016514882751 L-93.38087364905437,38.90187189785118 L-93.56537215609708,38.70749934362583 L-93.75557606405852,38.51870617019711 L-93.95131672456027,38.33565977508533 L-94.1524205799435,38.15852246030643 L-94.35870931715745,37.98745128846338 L-94.5700000258646,37.82259794348334 L-94.78610536062202,37.66410859612375 L-95.00683370699518,37.512123774366955 L-95.23198935145714,37.366778238818036 L-95.46137265492199,37.228200863216415 L-95.69478022975923,37.09651452016719 L-95.93200512013176,36.97183597219353 L-96.17283698549771,36.85427576820663 L-96.41706228711337,36.74393814548518 L-96.66446447737195,36.64092093725114 L-96.91482419181015,36.54531548592379 L-97.16791944361233,36.45720656212905 L-97.42352582043998,36.37667228953576 L-97.68141668341158,36.30378407558564 L-97.94136336805703,36.238606548178396 L-98.20313538706773,36.18119749836794 L-98.46650063466323,36.13160782912079 L-98.73122559239272,36.08988151018176 L-98.99707553618921,36.05605553908736 L-99.26381474449269,36.03015990836104 L-99.53120670725767,36.01221757891972 L-99.79901433565986,36.00224445971498 L-100.06700017231617,36.00024939362709 L-100.33492660183133,36.00623414962421 L-100.60255606148463,36.020193421193966 L-100.86965125187014,36.04211483104853 L-101.13597534730319,36.071978942099236 L-101.40129220580702,36.1097592746909 L-101.66536657849313,36.15542233008053 L-101.92796431814973,36.20892762013977 L-102.18885258685343,36.270227703254506 L-102.4478000624199,36.33926822639004 L-102.70457714351079,36.415987973284345 L-102.95895615321454,36.50031891872679 L-103.21071154092112,36.592186288874146 L-103.45962008231123,36.691508627550434 L-103.70546107728299,36.79819786847179 L-103.94801654564041,36.91215941333229 L-104.18707142037022,37.03329221568163 L-104.42241373833558,37.161488870520074 L-104.6538348282179,37.296635709531444 L-104.88112949553957,37.43861290186955 L-105.10409620460418,37.58729456040878 L-105.32253725719241,37.74254885336465 L-105.5362589678554,37.90423812118525 L-105.74507183565015,38.07221899861006 L-105.94879071216457,38.246342541787854 L-106.14723496568327,38.426454360340905 L-106.34022864134859,38.6123947542586 L-106.52760061717476,38.80399885549884 L-106.70918475577683,39.00109677417182 L-106.88482005168001,39.203513749176594 L-107.05435077407859,39.411070303156706 L-107.21762660491798,39.62358240163768 L-107.37450277217754,39.840861616205096 L-107.52484017823565,40.06271529157874 L-107.66850552320378,40.28894671643451 L-107.80537142311952,40.519355297822734 L-107.93531652289444,40.75373673902824 L-108.0582256039161,40.991883220714385 L-108.17398968620918,41.23358358519057 L-108.28250612506484,41.47862352363973 L-108.38367870205289,41.72678576613983 L-108.47741771033594,41.97785027431092 L-108.56364003420987,42.231594436416884 L-108.64226922280018,42.48779326474893 L-108.71323555784875,42.74621959511573 L-108.77647611553108,43.0066442882635 L-108.83193482224904,43.268836433047156 L-108.87956250434969,43.532563551172686 L-108.91931693172624,43.79759180332903 L-108.95116285526217,44.063686196526675 L-108.97507203808571,44.33061079245929 L-108.99102328060661,44.598128916703466 L-108.99900243931324,44.86600336857115 L-108.99900243931324,45.133996631428786 L-108.99102328060661,45.40187108329648 L-108.97507203808571,45.66938920754065 L-108.95116285526218,45.93631380347327 L-108.91931693172626,46.202408196670916 L-108.8795625043497,46.46743644882725 L-108.83193482224905,46.73116356695279 L-108.7764761155311,46.99335571173644 L-108.71323555784876,47.2537804048842 L-108.6422692228002,47.51220673525101 L-108.5636400342099,47.76840556358306 L-108.47741771033596,48.022149725689026 L-108.3836787020529,48.27321423386012 L-108.28250612506486,48.52137647636021 L-108.17398968620921,48.76641641480937 L-108.05822560391613,49.00811677928556 L-107.93531652289447,49.24626326097171 L-107.80537142311955,49.48064470217721 L-107.6685055232038,49.711053283565434 L-107.52484017823569,49.9372847084212 L-107.37450277217756,50.159138383794854 L-107.21762660491802,50.37641759836227 L-107.05435077407863,50.588929696843245 L-106.88482005168005,50.79648625082336 L-106.70918475577687,50.99890322582813 L-106.5276006171748,51.19600114450112 L-106.34022864134863,51.387605245741355 L-106.14723496568331,51.57354563965905 L-105.94879071216461,51.7536574582121 L-105.74507183565021,51.927781001389896 L-105.53625896785545,52.09576187881471 L-105.32253725719244,52.25745114663532 L-105.10409620460422,52.41270543959119 L-104.8811294955396,52.56138709813043 L-104.65383482821792,52.70336429046854 L-104.4224137383356,52.83851112947991 L-104.18707142037024,52.96670778431836 L-103.94801654564044,53.087840586667696 L-103.70546107728302,53.201802131528204 L-103.45962008231125,53.30849137244955 L-103.21071154092114,53.407813711125854 L-102.95895615321456,53.49968108127321 L-102.70457714351079,53.584012026715655 L-102.4478000624199,53.66073177360996 L-102.18885258685341,53.729772296745494 L-101.92796431814973,53.79107237986023 L-101.66536657849312,53.844577669919474 L-101.40129220580701,53.890240725309106 L-101.13597534730317,53.928021057900764 L-100.86965125187011,53.95788516895147 L-100.6025560614846,53.979806578806034 L-100.33492660183128,53.99376585037579 L-100.06700017231614,53.99975060637291 L-99.79901433565982,53.99775554028502 L-99.53120670725762,53.98778242108028 L-99.26381474449265,53.96984009163896 L-98.99707553618917,53.94394446091263 L-98.73122559239266,53.91011848981823 L-98.46650063466318,53.868392170879204 L-98.20313538706768,53.81880250163204 L-97.94136336805697,53.76139345182159 L-97.68141668341151,53.69621592441434 L-97.4235258204399,53.623327710464224 L-97.16791944361226,53.54279343787093 L-96.91482419181007,53.454684514076185 L-96.66446447737187,53.35907906274883 L-96.41706228711328,53.25606185451478 L-96.17283698549763,53.14572423179333 L-95.93200512013168,53.028164027806426 L-95.69478022975915,52.90348547983276 L-95.4613726549219,52.771799136783535 L-95.23198935145705,52.63322176118191 L-95.0068337069951,52.48787622563298 L-94.78610536062192,52.33589140387618 L-94.5700000258645,52.177402056516584 L-94.35870931715735,52.01254871153654 L-94.1524205799434,51.841477539693486 L-93.95131672456017,51.664340224914575 L-93.7555760640584,51.481293829802794 L-93.565372156097,51.292500656374074 L-93.38087364905427,51.09812810214871 L-93.2022441324924,50.898348511724784 L-93.02964199210712,50.693339023965066 L-92.86322026929167,50.4832814149331 L-92.70312652543942,50.26836193671754 L-92.54950271110528,50.0487711522877 L-92.4024850401423,49.824703766526845 L-92.26220386892464,49.596358453592934 L-92.12878358076439,49.36393768075987 L-92.00234247562436,49.12764752889558 L-91.8829926652249,48.88769750973597 L-91.77083997363765,48.64430038011687 L-91.66598384345433,48.39767195332859 L-91.56851724761387,48.14803090776045 L-91.4785266069659,47.895598593004884 L-91.39609171364393,47.64059883359309 L-91.32128566031582,47.38325773053616 L-91.25417477537478,47.12380346084781 L-91.19481856412766,46.86246607522633 L-91.14326965603344,46.599477294075164 L-91.09957375803818,46.33507030204305 L-91.06376961404789,46.06947954126586 L-91.03588897057551,45.80294050349344 L-91.01595654859213,45.535689521285775 L-91.0039900216076,45.2679635584637 L-91.0,44.999999999999766 " />
			<path d="M109.0,45.0 L108.99600997839238,44.732036441536074 L108.98404345140786,44.46431047871399 L108.96411102942446,44.197059496506334 L108.93623038595209,43.930520458733916 L108.9004262419618,43.66492969795673 L108.85673034396652,43.40052270592462 L108.8051814358723,43.13753392477346 L108.74582522462518,42.876196539151984 L108.67871433968412,42.61674226946365 L108.60390828635602,42.35940116640672 L108.52147339303404,42.104401406994924 L108.43148275238607,41.851969092239365 L108.3340161565456,41.60232804667123 L108.22916002636228,41.355699619882955 L108.11700733477502,41.112302490263865 L107.99765752437555,40.872352471104264 L107.87121641923552,40.636062319239976 L107.73779613107527,40.40364154640692 L107.59751495985762,40.17529623347301 L107.45049728889462,39.951228847712166 L107.29687347456048,39.73163806328233 L107.13677973070823,39.51671858506677 L106.9703580078928,39.30666097603481 L106.7977558675075,39.1016514882751 L106.61912635094563,38.90187189785118 L106.43462784390292,38.70749934362583 L106.24442393594148,38.51870617019711 L106.04868327543973,38.33565977508533 L105.8475794200565,38.15852246030643 L105.64129068284255,37.98745128846338 L105.4299999741354,37.82259794348334 L105.21389463937798,37.66410859612375 L104.99316629300482,37.512123774366955 L104.76801064854286,37.366778238818036 L104.53862734507801,37.228200863216415 L104.30521977024077,37.09651452016719 L104.06799487986824,36.97183597219353 L103.82716301450229,36.85427576820663 L103.58293771288663,36.74393814548518 L103.33553552262805,36.64092093725114 L103.08517580818985,36.54531548592379 L102.83208055638767,36.45720656212905 L102.57647417956002,36.37667228953576 L102.31858331658842,36.30378407558564 L102.05863663194297,36.238606548178396 L101.79686461293227,36.18119749836794 L101.53349936533677,36.13160782912079 L101.26877440760728,36.08988151018176 L101.00292446381079,36.05605553908736 L100.73618525550731,36.03015990836104 L100.46879329274233,36.01221757891972 L100.20098566434014,36.00224445971498 L99.93299982768383,36.00024939362709 L99.66507339816867,36.00623414962421 L99.39744393851537,36.020193421193966 L99.13034874812986,36.04211483104853 L98.86402465269681,36.071978942099236 L98.59870779419298,36.1097592746909 L98.33463342150687,36.15542233008053 L98.07203568185027,36.20892762013977 L97.81114741314657,36.270227703254506 L97.5521999375801,36.33926822639004 L97.29542285648921,36.415987973284345 L97.04104384678546,36.50031891872679 L96.78928845907888,36.592186288874146 L96.54037991768877,36.691508627550434 L96.29453892271701,36.79819786847179 L96.05198345435959,36.91215941333229 L95.81292857962978,37.03329221568163 L95.57758626166442,37.161488870520074 L95.3461651717821,37.296635709531444 L95.11887050446043,37.43861290186955 L94.89590379539582,37.58729456040878 L94.67746274280759,37.74254885336465 L94.4637410321446,37.90423812118525 L94.25492816434985,38.07221899861006 L94.05120928783543,38.246342541787854 L93.85276503431673,38.426454360340905 L93.65977135865141,38.6123947542586 L93.47239938282524,38.80399885549884 L93.29081524422317,39.00109677417182 L93.11517994831999,39.203513749176594 L92.94564922592141,39.411070303156706 L92.78237339508202,39.62358240163768 L92.62549722782246,39.840861616205096 L92.47515982176435,40.06271529157874 L92.33149447679622,40.28894671643451 L92.19462857688048,40.519355297822734 L92.06468347710556,40.75373673902824 L91.9417743960839,40.991883220714385 L91.82601031379082,41.23358358519057 L91.71749387493516,41.47862352363973 L91.61632129794711,41.72678576613983 L91.52258228966406,41.97785027431092 L91.43635996579013,42.231594436416884 L91.35773077719982,42.48779326474893 L91.28676444215125,42.74621959511573 L91.22352388446892,43.0066442882635 L91.16806517775096,43.268836433047156 L91.12043749565031,43.532563551172686 L91.08068306827376,43.79759180332903 L91.04883714473783,44.063686196526675 L91.02492796191429,44.33061079245929 L91.00897671939339,44.598128916703466 L91.00099756068676,44.86600336857115 L91.00099756068676,45.133996631428786 L91.00897671939339,45.40187108329648 L91.02492796191429,45.66938920754065 L91.04883714473782,45.93631380347327 L91.08068306827374,46.202408196670916 L91.1204374956503,46.46743644882725 L91.16806517775095,46.73116356695279 L91.2235238844689,46.99335571173644 L91.28676444215124,47.2537804048842 L91.3577307771998,47.51220673525101 L91.4363599657901,47.76840556358306 L91.52258228966404,48.022149725689026 L91.6163212979471,48.27321423386012 L91.71749387493514,48.52137647636021 L91.82601031379079,48.76641641480937 L91.94177439608387,49.00811677928556 L92.06468347710553,49.24626326097171 L92.19462857688045,49.48064470217721 L92.3314944767962,49.711053283565434 L92.47515982176431,49.9372847084212 L92.62549722782244,50.159138383794854 L92.78237339508198,50.37641759836227 L92.94564922592137,50.588929696843245 L93.11517994831995,50.79648625082336 L93.29081524422313,50.99890322582813 L93.4723993828252,51.19600114450112 L93.65977135865137,51.387605245741355 L93.85276503431669,51.57354563965905 L94.05120928783539,51.7536574582121 L94.25492816434979,51.927781001389896 L94.46374103214455,52.09576187881471 L94.67746274280756,52.25745114663532 L94.89590379539578,52.41270543959119 L95.1188705044604,52.56138709813043 L95.34616517178208,52.70336429046854 L95.5775862616644,52.83851112947991 L95.81292857962976,52.96670778431836 L96.05198345435956,53.087840586667696 L96.29453892271698,53.201802131528204 L96.54037991768875,53.30849137244955 L96.78928845907886,53.407813711125854 L97.04104384678544,53.49968108127321 L97.29542285648921,53.584012026715655 L97.5521999375801,53.66073177360996 L97.81114741314659,53.729772296745494 L98.07203568185027,53.79107237986023 L98.33463342150688,53.844577669919474 L98.59870779419299,53.890240725309106 L98.86402465269683,53.928021057900764 L99.13034874812989,53.95788516895147 L99.3974439385154,53.979806578806034 L99.66507339816872,53.99376585037579 L99.93299982768386,53.99975060637291 L100.20098566434018,53.99775554028502 L100.46879329274238,53.98778242108028 L100.73618525550735,53.96984009163896 L101.00292446381083,53.94394446091263 L101.26877440760734,53.91011848981823 L101.53349936533682,53.868392170879204 L101.79686461293232,53.81880250163204 L102.05863663194303,53.76139345182159 L102.31858331658849,53.69621592441434 L102.5764741795601,53.623327710464224 L102.83208055638774,53.54279343787093 L103.08517580818993,53.454684514076185 L103.33553552262813,53.35907906274883 L103.58293771288672,53.25606185451478 L103.82716301450237,53.14572423179333 L104.06799487986832,53.028164027806426 L104.30521977024085,52.90348547983276 L104.5386273450781,52.771799136783535 L104.76801064854295,52.63322176118191 L104.9931662930049,52.48787622563298 L105.21389463937808,52.33589140387618 L105.4299999741355,52.177402056516584 L105.64129068284265,52.01254871153654 L105.8475794200566,51.841477539693486 L106.04868327543983,51.664340224914575 L106.2444239359416,51.481293829802794 L106.434627843903,51.292500656374074 L106.61912635094573,51.09812810214871 L106.7977558675076,50.898348511724784 L106.97035800789288,50.693339023965066 L107.13677973070833,50.4832814149331 L107.29687347456058,50.26836193671754 L107.45049728889472,50.0487711522877 L107.5975149598577,49.824703766526845 L107.73779613107536,49.596358453592934 L107.87121641923561,49.36393768075987 L107.99765752437564,49.12764752889558 L108.1170073347751,48.88769750973597 L108.22916002636235,48.64430038011687 L108.33401615654567,48.39767195332859 L108.43148275238613,48.14803090776045 L108.5214733930341,47.895598593004884 L108.60390828635607,47.64059883359309 L108.67871433968418,47.38325773053616 L108.74582522462522,47.12380346084781 L108.80518143587234,46.86246607522633 L108.85673034396656,46.599477294075164 L108.90042624196182,46.33507030204305 L108.93623038595211,46.06947954126586 L108.96411102942449,45.80294050349344 L108.98404345140787,45.535689521285775 L108.9960099783924,45.2679635584637 L109.0,44.999999999999766 " />

       </g>
    </g>
    
</svg>

</g>
<text x="35" y="40" fill="#254c6e" font-size="13">TOP X-Y</text>
<g transform="translate(35,415)">
<svg
   xmlns:svg="http://www.w3.org/2000/svg"
   xmlns="http://www.w3.org/2000/svg"
   width="490.0"
   height="240.0"

>
    <g transform="scale(1.4134615384615383, -1.4134615384615383)   translate(147.687074829932,-32.68707492993198)" stroke-width="0.8"  fill="none">
       <!-- hidden lines -->
       <g  stroke="rgb(165,188,205)" fill="none" stroke-dasharray="0.8,0.8" >
			<path d="M-130.0,-14.999999999999993 L-130.0,15.000000000000007 " />
			<path d="M-130.0,15.000000000000007 L130.0,15.000000000000007 " />
			<path d="M-91.0,14.999999999999995 L-91.22564879036359,14.999999999999995 L-91.89128018887823,14.999999999999995 L-92.96351665778774,14.999999999999995 L-94.3885917832714,14.999999999999995 L-96.09504634794197,14.999999999999993 L-97.99731159439317,14.999999999999993 L-100.0,14.999999999999993 L-102.00268840560683,14.999999999999993 L-103.90495365205803,14.999999999999993 L-105.6114082167286,14.999999999999995 L-107.03648334221226,14.999999999999995 L-108.10871981112177,14.999999999999995 L-108.77435120963641,14.999999999999995 L-109.0,14.999999999999995 " />
			<path d="M-109.0,14.999999999999995 L-108.77435120963641,14.999999999999995 L-108.10871981112177,14.999999999999995 L-107.03648334221226,14.999999999999995 L-105.6114082167286,14.999999999999995 L-103.90495365205803,14.999999999999996 L-102.00268840560683,14.999999999999996 L-100.0,14.999999999999996 L-97.99731159439317,14.999999999999996 L-96.09504634794197,14.999999999999996 L-94.3885917832714,14.999999999999995 L-92.96351665778774,14.999999999999995 L-91.89128018887823,14.999999999999995 L-91.22564879036359,14.999999999999995 L-91.00000000000001,14.999999999999995 " />
			<path d="M109.0,14.999999999999995 L108.77435120963641,14.999999999999995 L108.10871981112177,14.999999999999995 L107.03648334221226,14.999999999999995 L105.6114082167286,14.999999999999995 L103.90495365205803,14.999999999999993 L102.00268840560683,14.999999999999993 L100.0,14.999999999999993 L97.99731159439317,14.999999999999993 L96.09504634794197,14.999999999999993 L94.3885917832714,14.999999999999995 L92.96351665778774,14.999999999999995 L91.89128018887823,14.999999999999995 L91.22564879036359,14.999999999999995 L91.0,14.999999999999995 " />
			<path d="M91.0,14.999999999999995 L91.22564879036359,14.999999999999995 L91.89128018887823,14.999999999999995 L92.96351665778774,14.999999999999995 L94.3885917832714,14.999999999999995 L96.09504634794197,14.999999999999996 L97.99731159439317,14.999999999999996 L100.0,14.999999999999996 L102.00268840560683,14.999999999999996 L103.90495365205803,14.999999999999996 L105.6114082167286,14.999999999999995 L107.03648334221226,14.999999999999995 L108.10871981112177,14.999999999999995 L108.77435120963641,14.999999999999995 L108.99999999999999,14.999999999999995 " />
			<path d="M-91.0,15.000000000000005 L-91.22564879036359,15.000000000000005 L-91.89128018887823,15.000000000000005 L-92.96351665778774,15.000000000000005 L-94.3885917832714,15.000000000000005 L-96.09504634794197,15.000000000000004 L-97.99731159439317,15.000000000000004 L-100.0,15.000000000000004 L-102.00268840560683,15.000000000000004 L-103.90495365205803,15.000000000000004 L-105.6114082167286,15.000000000000005 L-107.03648334221226,15.000000000000005 L-108.10871981112177,15.000000000000005 L-108.77435120963641,15.000000000000005 L-109.0,15.000000000000005 " />
			<path d="M-109.0,15.000000000000005 L-108.77435120963641,15.000000000000005 L-108.10871981112177,15.000000000000005 L-107.03648334221226,15.000000000000005 L-105.6114082167286,15.000000000000005 L-103.90495365205803,15.000000000000007 L-102.00268840560683,15.000000000000007 L-100.0,15.000000000000007 L-97.99731159439317,15.000000000000007 L-96.09504634794197,15.000000000000007 L-94.3885917832714,15.000000000000005 L-92.96351665778774,15.000000000000005 L-91.89128018887823,15.000000000000005 L-91.22564879036359,15.000000000000005 L-91.00000000000001,15.000000000000005 " />
			<path d="M109.0,15.000000000000005 L108.77435120963641,15.000000000000005 L108.10871981112177,15.000000000000005 L107.03648334221226,15.000000000000005 L105.6114082167286,15.000000000000005 L103.90495365205803,15.000000000000004 L102.00268840560683,15.000000000000004 L100.0,15.000000000000004 L97.99731159439317,15.000000000000004 L96.09504634794197,15.000000000000004 L94.3885917832714,15.000000000000005 L92.96351665778774,15.000000000000005 L91.89128018887823,15.000000000000005 L91.22564879036359,15.000000000000005 L91.0,15.000000000000005 " />
			<path d="M91.0,15.000000000000005 L91.22564879036359,15.000000000000005 L91.89128018887823,15.000000000000005 L92.96351665778774,15.000000000000005 L94.3885917832714,15.000000000000005 L96.09504634794197,15.000000000000007 L97.99731159439317,15.000000000000007 L100.0,15.000000000000007 L102.00268840560683,15.000000000000007 L103.90495365205803,15.000000000000007 L105.6114082167286,15.000000000000005 L107.03648334221226,15.000000000000005 L108.10871981112177,15.000000000000005 L108.77435120963641,15.000000000000005 L108.99999999999999,15.000000000000005 " />
			<path d="M-130.0,-14.999999999999993 L130.0,-14.999999999999993 " />
			<path d="M130.0,-14.999999999999993 L130.0,15.000000000000007 " />
			<path d="M-91.0,-15.000000000000005 L-91.22564879036359,-15.000000000000005 L-91.89128018887823,-15.000000000000005 L-92.96351665778774,-15.000000000000005 L-94.3885917832714,-15.000000000000005 L-96.09504634794197,-15.000000000000007 L-97.99731159439317,-15.000000000000007 L-100.0,-15.000000000000007 L-102.00268840560683,-15.000000000000007 L-103.90495365205803,-15.000000000000007 L-105.6114082167286,-15.000000000000005 L-107.03648334221226,-15.000000000000005 L-108.10871981112177,-15.000000000000005 L-108.77435120963641,-15.000000000000005 L-109.0,-15.000000000000005 " />
			<path d="M-109.0,-15.000000000000005 L-108.77435120963641,-15.000000000000005 L-108.10871981112177,-15.000000000000005 L-107.03648334221226,-15.000000000000005 L-105.6114082167286,-15.000000000000005 L-103.90495365205803,-15.000000000000004 L-102.00268840560683,-15.000000000000004 L-100.0,-15.000000000000004 L-97.99731159439317,-15.000000000000004 L-96.09504634794197,-15.000000000000004 L-94.3885917832714,-15.000000000000005 L-92.96351665778774,-15.000000000000005 L-91.89128018887823,-15.000000000000005 L-91.22564879036359,-15.000000000000005 L-91.00000000000001,-15.000000000000005 " />
			<path d="M109.0,-15.000000000000005 L108.77435120963641,-15.000000000000005 L108.10871981112177,-15.000000000000005 L107.03648334221226,-15.000000000000005 L105.6114082167286,-15.000000000000005 L103.90495365205803,-15.000000000000007 L102.00268840560683,-15.000000000000007 L100.0,-15.000000000000007 L97.99731159439317,-15.000000000000007 L96.09504634794197,-15.000000000000007 L94.3885917832714,-15.000000000000005 L92.96351665778774,-15.000000000000005 L91.89128018887823,-15.000000000000005 L91.22564879036359,-15.000000000000005 L91.0,-15.000000000000005 " />
			<path d="M91.0,-15.000000000000005 L91.22564879036359,-15.000000000000005 L91.89128018887823,-15.000000000000005 L92.96351665778774,-15.000000000000005 L94.3885917832714,-15.000000000000005 L96.09504634794197,-15.000000000000004 L97.99731159439317,-15.000000000000004 L100.0,-15.000000000000004 L102.00268840560683,-15.000000000000004 L103.90495365205803,-15.000000000000004 L105.6114082167286,-15.000000000000005 L107.03648334221226,-15.000000000000005 L108.10871981112177,-15.000000000000005 L108.77435120963641,-15.000000000000005 L108.99999999999999,-15.000000000000005 " />
			<path d="M-91.0,-14.999999999999995 L-91.22564879036359,-14.999999999999995 L-91.89128018887823,-14.999999999999995 L-92.96351665778774,-14.999999999999995 L-94.3885917832714,-14.999999999999995 L-96.09504634794197,-14.999999999999996 L-97.99731159439317,-14.999999999999996 L-100.0,-14.999999999999996 L-102.00268840560683,-14.999999999999996 L-103.90495365205803,-14.999999999999996 L-105.6114082167286,-14.999999999999995 L-107.03648334221226,-14.999999999999995 L-108.10871981112177,-14.999999999999995 L-108.77435120963641,-14.999999999999995 L-109.0,-14.999999999999995 " />
			<path d="M-109.0,-14.999999999999995 L-108.77435120963641,-14.999999999999995 L-108.10871981112177,-14.999999999999995 L-107.03648334221226,-14.999999999999995 L-105.6114082167286,-14.999999999999995 L-103.90495365205803,-14.999999999999993 L-102.00268840560683,-14.999999999999993 L-100.0,-14.999999999999993 L-97.99731159439317,-14.999999999999993 L-96.09504634794197,-14.999999999999993 L-94.3885917832714,-14.999999999999995 L-92.96351665778774,-14.999999999999995 L-91.89128018887823,-14.999999999999995 L-91.22564879036359,-14.999999999999995 L-91.00000000000001,-14.999999999999995 " />
			<path d="M109.0,-14.999999999999995 L108.77435120963641,-14.999999999999995 L108.10871981112177,-14.999999999999995 L107.03648334221226,-14.999999999999995 L105.6114082167286,-14.999999999999995 L103.90495365205803,-14.999999999999996 L102.00268840560683,-14.999999999999996 L100.0,-14.999999999999996 L97.99731159439317,-14.999999999999996 L96.09504634794197,-14.999999999999996 L94.3885917832714,-14.999999999999995 L92.96351665778774,-14.999999999999995 L91.89128018887823,-14.999999999999995 L91.22564879036359,-14.999999999999995 L91.0,-14.999999999999995 " />
			<path d="M91.0,-14.999999999999995 L91.22564879036359,-14.999999999999995 L91.89128018887823,-14.999999999999995 L92.96351665778774,-14.999999999999995 L94.3885917832714,-14.999999999999995 L96.09504634794197,-14.999999999999993 L97.99731159439317,-14.999999999999993 L100.0,-14.999999999999993 L102.00268840560683,-14.999999999999993 L103.90495365205803,-14.999999999999993 L105.6114082167286,-14.999999999999995 L107.03648334221226,-14.999999999999995 L108.10871981112177,-14.999999999999995 L108.77435120963641,-14.999999999999995 L108.99999999999999,-14.999999999999995 " />
			<path d="M-91.0,-15.000000000000004 L-91.0,14.999999999999996 " />
			<path d="M109.0,-15.000000000000004 L109.0,14.999999999999996 " />
			<path d="M-91.0,-14.999999999999995 L-91.0,15.000000000000005 " />
			<path d="M109.0,-14.999999999999995 L109.0,15.000000000000005 " />
			<path d="M-109.0,14.999999999999996 L-109.0,-15.000000000000004 " />
			<path d="M91.0,14.999999999999996 L91.0,-15.000000000000004 " />
			<path d="M-109.0,15.000000000000005 L-109.0,-14.999999999999995 " />
			<path d="M91.0,15.000000000000005 L91.0,-14.999999999999995 " />

       </g>

       <!-- solid lines -->
       <g  stroke="rgb(37,76,110)" fill="none">
			<path d="M-130.0,-15.000000000000007 L-130.0,14.999999999999993 " />
			<path d="M-130.0,-15.000000000000007 L130.0,-15.000000000000007 " />
			<path d="M130.0,-15.000000000000007 L130.0,14.999999999999993 " />
			<path d="M-130.0,14.999999999999993 L130.0,14.999999999999993 " />

       </g>
    </g>
    
</svg>

</g>
<text x="35" y="405" fill="#254c6e" font-size="13">FRONT X-Z</text>
<g transform="translate(630,415)">
<svg
   xmlns:svg="http://www.w3.org/2000/svg"
   xmlns="http://www.w3.org/2000/svg"
   width="490.0"
   height="240.0"

>
    <g transform="scale(2.624999999999999, -2.624999999999999)   translate(79.52380952380955,-24.52380962380954)" stroke-width="0.8"  fill="none">
       <!-- hidden lines -->
       <g  stroke="rgb(165,188,205)" fill="none" stroke-dasharray="0.8,0.8" >
			<path d="M-70.00000000000001,-14.999999999999986 L-70.00000000000001,15.000000000000014 " />
			<path d="M-70.00000000000001,15.000000000000014 L69.99999999999999,15.000000000000014 " />
			<path d="M69.99999999999999,-14.999999999999986 L69.99999999999999,15.000000000000014 " />
			<path d="M-70.00000000000001,-14.999999999999986 L69.99999999999999,-14.999999999999986 " />
			<path d="M-45.000000000000014,15.000000000000009 L-46.00768028492978,15.000000000000009 L-47.00268840560684,15.000000000000009 L-47.97251155759652,15.000000000000009 L-48.90495365205803,15.000000000000009 L-49.78828868863804,15.00000000000001 L-50.61140821672861,15.00000000000001 L-51.363961030678944,15.00000000000001 L-52.03648334221228,15.00000000000001 L-52.62051779305457,15.00000000000001 L-53.10871981112179,15.00000000000001 L-53.49494997277532,15.00000000000001 L-53.77435120963642,15.00000000000001 L-53.943409889039195,15.00000000000001 L-54.000000000000014,15.00000000000001 " />
			<path d="M-54.000000000000014,15.00000000000001 L-53.77435120963643,15.00000000000001 L-53.10871981112179,15.00000000000001 L-52.036483342212286,15.00000000000001 L-50.61140821672862,15.00000000000001 L-48.90495365205804,15.000000000000012 L-47.00268840560685,15.000000000000012 L-45.00000000000002,15.000000000000012 L-42.99731159439319,15.000000000000012 L-41.095046347941995,15.000000000000012 L-39.388591783271416,15.00000000000001 L-37.96351665778775,15.00000000000001 L-36.89128018887824,15.00000000000001 L-36.2256487903636,15.00000000000001 L-36.00000000000002,15.00000000000001 " />
			<path d="M-36.000000000000014,15.00000000000001 L-36.05659011096083,15.00000000000001 L-36.2256487903636,15.00000000000001 L-36.505050027224705,15.00000000000001 L-36.89128018887824,15.00000000000001 L-37.379482206945454,15.00000000000001 L-37.96351665778774,15.00000000000001 L-38.636038969321085,15.00000000000001 L-39.38859178327141,15.00000000000001 L-40.21171131136198,15.00000000000001 L-41.09504634794199,15.000000000000009 L-42.02748844240351,15.000000000000009 L-42.99731159439318,15.000000000000009 L-43.99231971507024,15.000000000000009 L-44.999999999999936,15.000000000000009 " />
			<path d="M-44.999999999999986,14.999999999999988 L-46.007680284929755,14.999999999999988 L-47.00268840560681,14.999999999999988 L-47.97251155759649,14.999999999999988 L-48.904953652058005,14.999999999999988 L-49.78828868863801,14.99999999999999 L-50.611408216728584,14.99999999999999 L-51.363961030678915,14.99999999999999 L-52.03648334221225,14.99999999999999 L-52.62051779305454,14.99999999999999 L-53.10871981112176,14.99999999999999 L-53.494949972775295,14.99999999999999 L-53.77435120963639,14.99999999999999 L-53.94340988903917,14.99999999999999 L-53.999999999999986,14.99999999999999 " />
			<path d="M-53.999999999999986,14.99999999999999 L-53.7743512096364,14.99999999999999 L-53.10871981112176,14.99999999999999 L-52.03648334221226,14.99999999999999 L-50.61140821672859,14.99999999999999 L-48.90495365205801,14.999999999999991 L-47.00268840560682,14.999999999999991 L-44.99999999999999,14.999999999999991 L-42.99731159439316,14.999999999999991 L-41.09504634794197,14.999999999999991 L-39.38859178327139,14.99999999999999 L-37.96351665778772,14.99999999999999 L-36.89128018887821,14.99999999999999 L-36.22564879036357,14.99999999999999 L-35.99999999999999,14.99999999999999 " />
			<path d="M-35.999999999999986,14.99999999999999 L-36.056590110960805,14.99999999999999 L-36.22564879036357,14.99999999999999 L-36.50505002722468,14.99999999999999 L-36.89128018887821,14.99999999999999 L-37.379482206945426,14.99999999999999 L-37.963516657787714,14.99999999999999 L-38.636038969321056,14.99999999999999 L-39.38859178327138,14.99999999999999 L-40.21171131136195,14.99999999999999 L-41.09504634794196,14.999999999999988 L-42.02748844240348,14.999999999999988 L-42.99731159439315,14.999999999999988 L-43.99231971507021,14.999999999999988 L-44.99999999999991,14.999999999999988 " />
			<path d="M44.999999999999986,15.000000000000009 L43.99231971507022,15.000000000000009 L42.99731159439316,15.000000000000009 L42.02748844240348,15.000000000000009 L41.09504634794197,15.000000000000009 L40.21171131136196,15.00000000000001 L39.38859178327139,15.00000000000001 L38.636038969321056,15.00000000000001 L37.96351665778772,15.00000000000001 L37.37948220694543,15.00000000000001 L36.89128018887821,15.00000000000001 L36.50505002722468,15.00000000000001 L36.22564879036358,15.00000000000001 L36.056590110960805,15.00000000000001 L35.999999999999986,15.00000000000001 " />
			<path d="M35.999999999999986,15.00000000000001 L36.22564879036357,15.00000000000001 L36.89128018887821,15.00000000000001 L37.963516657787714,15.00000000000001 L39.38859178327138,15.00000000000001 L41.09504634794196,15.000000000000012 L42.99731159439315,15.000000000000012 L44.99999999999998,15.000000000000012 L47.00268840560681,15.000000000000012 L48.904953652058005,15.000000000000012 L50.611408216728584,15.00000000000001 L52.03648334221225,15.00000000000001 L53.10871981112176,15.00000000000001 L53.7743512096364,15.00000000000001 L53.99999999999998,15.00000000000001 " />
			<path d="M53.999999999999986,15.00000000000001 L53.94340988903917,15.00000000000001 L53.7743512096364,15.00000000000001 L53.494949972775295,15.00000000000001 L53.10871981112176,15.00000000000001 L52.620517793054546,15.00000000000001 L52.03648334221226,15.00000000000001 L51.363961030678915,15.00000000000001 L50.61140821672859,15.00000000000001 L49.78828868863802,15.00000000000001 L48.90495365205801,15.000000000000009 L47.97251155759649,15.000000000000009 L47.00268840560682,15.000000000000009 L46.00768028492976,15.000000000000009 L45.000000000000064,15.000000000000009 " />
			<path d="M45.000000000000014,14.999999999999988 L43.992319715070245,14.999999999999988 L42.99731159439319,14.999999999999988 L42.02748844240351,14.999999999999988 L41.095046347941995,14.999999999999988 L40.21171131136199,14.99999999999999 L39.388591783271416,14.99999999999999 L38.636038969321085,14.99999999999999 L37.96351665778775,14.99999999999999 L37.37948220694546,14.99999999999999 L36.89128018887824,14.99999999999999 L36.505050027224705,14.99999999999999 L36.22564879036361,14.99999999999999 L36.05659011096083,14.99999999999999 L36.000000000000014,14.99999999999999 " />
			<path d="M36.000000000000014,14.99999999999999 L36.2256487903636,14.99999999999999 L36.89128018887824,14.99999999999999 L37.96351665778774,14.99999999999999 L39.38859178327141,14.99999999999999 L41.09504634794199,14.999999999999991 L42.99731159439318,14.999999999999991 L45.00000000000001,14.999999999999991 L47.00268840560684,14.999999999999991 L48.90495365205803,14.999999999999991 L50.61140821672861,14.99999999999999 L52.03648334221228,14.99999999999999 L53.10871981112179,14.99999999999999 L53.77435120963643,14.99999999999999 L54.00000000000001,14.99999999999999 " />
			<path d="M54.000000000000014,14.99999999999999 L53.943409889039195,14.99999999999999 L53.77435120963643,14.99999999999999 L53.49494997277532,14.99999999999999 L53.10871981112179,14.99999999999999 L52.620517793054574,14.99999999999999 L52.036483342212286,14.99999999999999 L51.363961030678944,14.99999999999999 L50.61140821672862,14.99999999999999 L49.78828868863805,14.99999999999999 L48.90495365205804,14.999999999999988 L47.97251155759652,14.999999999999988 L47.00268840560685,14.999999999999988 L46.00768028492979,14.999999999999988 L45.00000000000009,14.999999999999988 " />
			<path d="M-45.000000000000014,-14.999999999999991 L-46.00768028492978,-14.999999999999991 L-47.00268840560684,-14.999999999999991 L-47.97251155759652,-14.999999999999991 L-48.90495365205803,-14.999999999999991 L-49.78828868863804,-14.99999999999999 L-50.61140821672861,-14.99999999999999 L-51.363961030678944,-14.99999999999999 L-52.03648334221228,-14.99999999999999 L-52.62051779305457,-14.99999999999999 L-53.10871981112179,-14.99999999999999 L-53.49494997277532,-14.99999999999999 L-53.77435120963642,-14.99999999999999 L-53.943409889039195,-14.99999999999999 L-54.000000000000014,-14.99999999999999 " />
			<path d="M-54.000000000000014,-14.99999999999999 L-53.77435120963643,-14.99999999999999 L-53.10871981112179,-14.99999999999999 L-52.036483342212286,-14.99999999999999 L-50.61140821672862,-14.99999999999999 L-48.90495365205804,-14.999999999999988 L-47.00268840560685,-14.999999999999988 L-45.00000000000002,-14.999999999999988 L-42.99731159439319,-14.999999999999988 L-41.095046347941995,-14.999999999999988 L-39.388591783271416,-14.99999999999999 L-37.96351665778775,-14.99999999999999 L-36.89128018887824,-14.99999999999999 L-36.2256487903636,-14.99999999999999 L-36.00000000000002,-14.99999999999999 " />
			<path d="M-36.000000000000014,-14.99999999999999 L-36.05659011096083,-14.99999999999999 L-36.2256487903636,-14.99999999999999 L-36.505050027224705,-14.99999999999999 L-36.89128018887824,-14.99999999999999 L-37.379482206945454,-14.99999999999999 L-37.96351665778774,-14.99999999999999 L-38.636038969321085,-14.99999999999999 L-39.38859178327141,-14.99999999999999 L-40.21171131136198,-14.99999999999999 L-41.09504634794199,-14.999999999999991 L-42.02748844240351,-14.999999999999991 L-42.99731159439318,-14.999999999999991 L-43.99231971507024,-14.999999999999991 L-44.999999999999936,-14.999999999999991 " />
			<path d="M-44.999999999999986,-15.000000000000012 L-46.007680284929755,-15.000000000000012 L-47.00268840560681,-15.000000000000012 L-47.97251155759649,-15.000000000000012 L-48.904953652058005,-15.000000000000012 L-49.78828868863801,-15.00000000000001 L-50.611408216728584,-15.00000000000001 L-51.363961030678915,-15.00000000000001 L-52.03648334221225,-15.00000000000001 L-52.62051779305454,-15.00000000000001 L-53.10871981112176,-15.00000000000001 L-53.494949972775295,-15.00000000000001 L-53.77435120963639,-15.00000000000001 L-53.94340988903917,-15.00000000000001 L-53.999999999999986,-15.00000000000001 " />
			<path d="M-53.999999999999986,-15.00000000000001 L-53.7743512096364,-15.00000000000001 L-53.10871981112176,-15.00000000000001 L-52.03648334221226,-15.00000000000001 L-50.61140821672859,-15.00000000000001 L-48.90495365205801,-15.000000000000009 L-47.00268840560682,-15.000000000000009 L-44.99999999999999,-15.000000000000009 L-42.99731159439316,-15.000000000000009 L-41.09504634794197,-15.000000000000009 L-39.38859178327139,-15.00000000000001 L-37.96351665778772,-15.00000000000001 L-36.89128018887821,-15.00000000000001 L-36.22564879036357,-15.00000000000001 L-35.99999999999999,-15.00000000000001 " />
			<path d="M-35.999999999999986,-15.00000000000001 L-36.056590110960805,-15.00000000000001 L-36.22564879036357,-15.00000000000001 L-36.50505002722468,-15.00000000000001 L-36.89128018887821,-15.00000000000001 L-37.379482206945426,-15.00000000000001 L-37.963516657787714,-15.00000000000001 L-38.636038969321056,-15.00000000000001 L-39.38859178327138,-15.00000000000001 L-40.21171131136195,-15.00000000000001 L-41.09504634794196,-15.000000000000012 L-42.02748844240348,-15.000000000000012 L-42.99731159439315,-15.000000000000012 L-43.99231971507021,-15.000000000000012 L-44.99999999999991,-15.000000000000012 " />
			<path d="M44.999999999999986,-14.999999999999991 L43.99231971507022,-14.999999999999991 L42.99731159439316,-14.999999999999991 L42.02748844240348,-14.999999999999991 L41.09504634794197,-14.999999999999991 L40.21171131136196,-14.99999999999999 L39.38859178327139,-14.99999999999999 L38.636038969321056,-14.99999999999999 L37.96351665778772,-14.99999999999999 L37.37948220694543,-14.99999999999999 L36.89128018887821,-14.99999999999999 L36.50505002722468,-14.99999999999999 L36.22564879036358,-14.99999999999999 L36.056590110960805,-14.99999999999999 L35.999999999999986,-14.99999999999999 " />
			<path d="M35.999999999999986,-14.99999999999999 L36.22564879036357,-14.99999999999999 L36.89128018887821,-14.99999999999999 L37.963516657787714,-14.99999999999999 L39.38859178327138,-14.99999999999999 L41.09504634794196,-14.999999999999988 L42.99731159439315,-14.999999999999988 L44.99999999999998,-14.999999999999988 L47.00268840560681,-14.999999999999988 L48.904953652058005,-14.999999999999988 L50.611408216728584,-14.99999999999999 L52.03648334221225,-14.99999999999999 L53.10871981112176,-14.99999999999999 L53.7743512096364,-14.99999999999999 L53.99999999999998,-14.99999999999999 " />
			<path d="M53.999999999999986,-14.99999999999999 L53.94340988903917,-14.99999999999999 L53.7743512096364,-14.99999999999999 L53.494949972775295,-14.99999999999999 L53.10871981112176,-14.99999999999999 L52.620517793054546,-14.99999999999999 L52.03648334221226,-14.99999999999999 L51.363961030678915,-14.99999999999999 L50.61140821672859,-14.99999999999999 L49.78828868863802,-14.99999999999999 L48.90495365205801,-14.999999999999991 L47.97251155759649,-14.999999999999991 L47.00268840560682,-14.999999999999991 L46.00768028492976,-14.999999999999991 L45.000000000000064,-14.999999999999991 " />
			<path d="M45.000000000000014,-15.000000000000012 L43.992319715070245,-15.000000000000012 L42.99731159439319,-15.000000000000012 L42.02748844240351,-15.000000000000012 L41.095046347941995,-15.000000000000012 L40.21171131136199,-15.00000000000001 L39.388591783271416,-15.00000000000001 L38.636038969321085,-15.00000000000001 L37.96351665778775,-15.00000000000001 L37.37948220694546,-15.00000000000001 L36.89128018887824,-15.00000000000001 L36.505050027224705,-15.00000000000001 L36.22564879036361,-15.00000000000001 L36.05659011096083,-15.00000000000001 L36.000000000000014,-15.00000000000001 " />
			<path d="M36.000000000000014,-15.00000000000001 L36.2256487903636,-15.00000000000001 L36.89128018887824,-15.00000000000001 L37.96351665778774,-15.00000000000001 L39.38859178327141,-15.00000000000001 L41.09504634794199,-15.000000000000009 L42.99731159439318,-15.000000000000009 L45.00000000000001,-15.000000000000009 L47.00268840560684,-15.000000000000009 L48.90495365205803,-15.000000000000009 L50.61140821672861,-15.00000000000001 L52.03648334221228,-15.00000000000001 L53.10871981112179,-15.00000000000001 L53.77435120963643,-15.00000000000001 L54.00000000000001,-15.00000000000001 " />
			<path d="M54.000000000000014,-15.00000000000001 L53.943409889039195,-15.00000000000001 L53.77435120963643,-15.00000000000001 L53.49494997277532,-15.00000000000001 L53.10871981112179,-15.00000000000001 L52.620517793054574,-15.00000000000001 L52.036483342212286,-15.00000000000001 L51.363961030678944,-15.00000000000001 L50.61140821672862,-15.00000000000001 L49.78828868863805,-15.00000000000001 L48.90495365205804,-15.000000000000012 L47.97251155759652,-15.000000000000012 L47.00268840560685,-15.000000000000012 L46.00768028492979,-15.000000000000012 L45.00000000000009,-15.000000000000012 " />
			<path d="M-54.000000000000014,15.00000000000001 L-54.000000000000014,-14.99999999999999 " />
			<path d="M-36.000000000000014,15.00000000000001 L-36.000000000000014,-14.99999999999999 " />
			<path d="M-53.999999999999986,14.99999999999999 L-53.999999999999986,-15.00000000000001 " />
			<path d="M-35.999999999999986,14.99999999999999 L-35.999999999999986,-15.00000000000001 " />
			<path d="M35.999999999999986,15.00000000000001 L35.999999999999986,-14.99999999999999 " />
			<path d="M53.999999999999986,15.00000000000001 L53.999999999999986,-14.99999999999999 " />
			<path d="M36.000000000000014,14.99999999999999 L36.000000000000014,-15.00000000000001 " />
			<path d="M54.000000000000014,14.99999999999999 L54.000000000000014,-15.00000000000001 " />

       </g>

       <!-- solid lines -->
       <g  stroke="rgb(37,76,110)" fill="none">
			<path d="M-69.99999999999999,-15.000000000000014 L-69.99999999999999,14.999999999999986 " />
			<path d="M-69.99999999999999,14.999999999999986 L70.00000000000001,14.999999999999986 " />
			<path d="M70.00000000000001,-15.000000000000014 L70.00000000000001,14.999999999999986 " />
			<path d="M-69.99999999999999,-15.000000000000014 L70.00000000000001,-15.000000000000014 " />

       </g>
    </g>
    
</svg>

</g>
<text x="630" y="405" fill="#254c6e" font-size="13">SIDE Y-Z</text>
<text x="625" y="85" fill="#19334f" font-size="24">AB-SPEC-002 / C0</text>
<text x="625" y="118" fill="#19334f" font-size="19">Clamp crosshead</text>
<text x="625" y="155" fill="#365774" font-size="12">Overall X / Y / Z bounds: 260.00 / 140.00 / 30.00 mm</text>
<text x="625" y="183" fill="#365774" font-size="12">Original package interface only; not a structural sizing.</text>
<rect x="20" y="748" width="1160" height="53" fill="#eaf3fa"/>
<text x="36" y="771" fill="#1b4e80" font-size="15">C0 CONCEPT / NOT FOR MANUFACTURE / NOMINAL mm / THIRD-ANGLE VIEW POSITIONS</text>
<text x="36" y="791" fill="#365774" font-size="12">CAD hidden-line projections; bounds and features are reference only. No tolerance, fit, finish or strength approval.</text>
</svg>