<svg xmlns="http://www.w3.org/2000/svg" viewBox="0 0 1200 820">
<rect width="1200" height="820" fill="#fff"/>
<g transform="translate(35,50)">
<svg
   xmlns:svg="http://www.w3.org/2000/svg"
   xmlns="http://www.w3.org/2000/svg"
   width="490.0"
   height="240.0"

>
    <g transform="scale(0.5142857142857142, -0.5142857142857142)   translate(118.61111111111111,-223.61111111111111)" stroke-width="0.8"  fill="none">
       <!-- hidden lines -->
       <g  stroke="rgb(165,188,205)" fill="none" stroke-dasharray="0.8,0.8" >
			<path d="M-70.0,-175.0 L-70.0,175.0 " />
			<path d="M-70.0,-175.0 L70.0,-175.0 " />
			<path d="M-35.0,-175.0 L-10.0,-175.0 " />
			<path d="M-35.0,-175.0 L-10.0,-175.0 " />
			<path d="M10.0,-175.0 L35.0,-175.0 " />
			<path d="M10.0,-175.0 L35.0,-175.0 " />
			<path d="M-35.0,175.0 L-10.0,175.0 " />
			<path d="M-10.0,-175.0 L-10.0,175.0 " />
			<path d="M-70.0,175.0 L70.0,175.0 " />
			<path d="M-35.0,175.0 L-10.0,175.0 " />
			<path d="M10.0,175.0 L35.0,175.0 " />
			<path d="M10.0,175.0 L35.0,175.0 " />
			<path d="M70.0,-175.0 L70.0,175.0 " />
			<path d="M10.0,-175.0 L10.0,175.0 " />
			<path d="M-10.0,-175.0 L-10.0,175.0 " />
			<path d="M-35.0,-175.0 L-35.0,175.0 " />
			<path d="M35.0,-175.0 L35.0,175.0 " />
			<path d="M10.0,-175.0 L10.0,175.0 " />

       </g>

       <!-- solid lines -->
       <g  stroke="rgb(37,76,110)" fill="none">
			<path d="M-70.0,-175.0 L-70.0,175.0 " />
			<path d="M-70.0,-175.0 L-35.0,-175.0 " />
			<path d="M-35.0,-175.0 L35.0,-175.0 " />
			<path d="M35.0,-175.0 L70.0,-175.0 " />
			<path d="M-70.0,175.0 L-35.0,175.0 " />
			<path d="M-35.0,175.0 L35.0,175.0 " />
			<path d="M35.0,175.0 L70.0,175.0 " />
			<path d="M70.0,-175.0 L70.0,175.0 " />
			<path d="M-35.0,-175.0 L-35.0,175.0 " />
			<path d="M35.0,-175.0 L35.0,175.0 " />

       </g>
    </g>
    
</svg>

</g>
<text x="35" y="40" fill="#254c6e" font-size="13">TOP X-Y</text>
<g transform="translate(35,415)">
<svg
   xmlns:svg="http://www.w3.org/2000/svg"
   xmlns="http://www.w3.org/2000/svg"
   width="490.0"
   height="240.0"

>
    <g transform="scale(1.4999999999999996, -1.4999999999999996)   translate(86.66666666666667,-116.66666666666669)" stroke-width="0.8"  fill="none">
       <!-- hidden lines -->
       <g  stroke="rgb(165,188,205)" fill="none" stroke-dasharray="0.8,0.8" >
			<path d="M-70.0,-19.999999999999982 L-70.0,1.7763568394002505e-14 " />
			<path d="M-70.0,1.942890293094024e-14 L-10.0,1.942890293094024e-14 " />
			<path d="M-70.0,-19.999999999999982 L70.0,-19.999999999999982 " />
			<path d="M-10.0,1.942890293094024e-14 L-10.0,70.00000000000001 " />
			<path d="M-35.0,70.00000000000001 L-10.0,70.00000000000001 " />
			<path d="M-35.0,70.00000000000001 L-35.0,100.00000000000001 " />
			<path d="M-35.0,100.00000000000001 L35.0,100.00000000000001 " />
			<path d="M35.0,70.00000000000001 L35.0,100.00000000000001 " />
			<path d="M10.0,70.00000000000001 L35.0,70.00000000000001 " />
			<path d="M10.0,1.942890293094024e-14 L10.0,70.00000000000001 " />
			<path d="M10.0,1.942890293094024e-14 L70.0,1.942890293094024e-14 " />
			<path d="M70.0,-19.999999999999982 L70.0,1.7763568394002505e-14 " />

       </g>

       <!-- solid lines -->
       <g  stroke="rgb(37,76,110)" fill="none">
			<path d="M-70.0,-20.000000000000018 L-70.0,-1.7763568394002505e-14 " />
			<path d="M-70.0,-20.000000000000018 L70.0,-20.000000000000018 " />
			<path d="M-70.0,-1.942890293094024e-14 L-10.0,-1.942890293094024e-14 " />
			<path d="M-10.0,-1.942890293094024e-14 L-10.0,69.99999999999999 " />
			<path d="M-35.0,69.99999999999999 L-10.0,69.99999999999999 " />
			<path d="M-35.0,69.99999999999999 L-35.0,99.99999999999999 " />
			<path d="M-35.0,99.99999999999999 L35.0,99.99999999999999 " />
			<path d="M35.0,69.99999999999999 L35.0,99.99999999999999 " />
			<path d="M10.0,69.99999999999999 L35.0,69.99999999999999 " />
			<path d="M10.0,-1.942890293094024e-14 L10.0,69.99999999999999 " />
			<path d="M10.0,-1.942890293094024e-14 L70.0,-1.942890293094024e-14 " />
			<path d="M70.0,-20.000000000000018 L70.0,-1.7763568394002505e-14 " />

       </g>
    </g>
    
</svg>

</g>
<text x="35" y="405" fill="#254c6e" font-size="13">FRONT X-Z</text>
<g transform="translate(630,415)">
<svg
   xmlns:svg="http://www.w3.org/2000/svg"
   xmlns="http://www.w3.org/2000/svg"
   width="490.0"
   height="240.0"

>
    <g transform="scale(1.0499999999999998, -1.0499999999999998)   translate(198.80952380952382,-123.80952380952381)" stroke-width="0.8"  fill="none">
       <!-- hidden lines -->
       <g  stroke="rgb(165,188,205)" fill="none" stroke-dasharray="0.8,0.8" >
			<path d="M-175.0,-19.999999999999993 L-175.0,7.105427357601002e-15 " />
			<path d="M-175.0,7.771561172376094e-15 L175.0,7.771561172376099e-15 " />
			<path d="M175.0,-19.999999999999993 L175.0,7.105427357601002e-15 " />
			<path d="M-175.0,-19.999999999999993 L175.0,-19.999999999999993 " />
			<path d="M-175.0,1.1102230246251544e-15 L-175.0,70.0 " />
			<path d="M-175.0,70.0 L-175.0,100.0 " />
			<path d="M-175.0,1.1102230246251544e-15 L175.0,1.1102230246251587e-15 " />
			<path d="M175.0,1.1102230246251587e-15 L175.0,70.0 " />
			<path d="M175.0,70.0 L175.0,100.0 " />
			<path d="M-175.0,-1.1102230246251587e-15 L175.0,-1.1102230246251544e-15 " />
			<path d="M-175.0,70.0 L175.0,70.0 " />
			<path d="M-175.0,70.0 L175.0,70.0 " />
			<path d="M-175.0,100.0 L175.0,100.0 " />
			<path d="M-175.0,70.0 L175.0,70.0 " />

       </g>

       <!-- solid lines -->
       <g  stroke="rgb(37,76,110)" fill="none">
			<path d="M-175.0,70.0 L-175.0,100.0 " />
			<path d="M-175.0,-1.1102230246251587e-15 L-175.0,70.0 " />
			<path d="M-175.0,-20.000000000000007 L-175.0,-7.105427357601002e-15 " />
			<path d="M175.0,70.0 L175.0,100.0 " />
			<path d="M175.0,-1.1102230246251544e-15 L175.0,70.0 " />
			<path d="M175.0,-20.000000000000007 L175.0,-7.105427357601002e-15 " />
			<path d="M-175.0,-20.000000000000007 L175.0,-20.000000000000007 " />
			<path d="M-175.0,-7.771561172376097e-15 L175.0,-7.771561172376093e-15 " />
			<path d="M-175.0,100.0 L175.0,100.0 " />
			<path d="M-175.0,70.0 L175.0,70.0 " />

       </g>
    </g>
    
</svg>

</g>
<text x="630" y="405" fill="#254c6e" font-size="13">SIDE Y-Z</text>
<text x="625" y="85" fill="#19334f" font-size="24">AB-SPEC-001 / C0</text>
<text x="625" y="118" fill="#19334f" font-size="19">Rail reference envelope</text>
<text x="625" y="155" fill="#365774" font-size="12">Overall X / Y / Z bounds: 140.00 / 350.00 / 120.00 mm</text>
<text x="625" y="183" fill="#365774" font-size="12">All dimensions nominal. Fits, GD&amp;T and edge details awaiting engineer release.</text>
<rect x="20" y="748" width="1160" height="53" fill="#eaf3fa"/>
<text x="36" y="771" fill="#1b4e80" font-size="15">C0 CONCEPT / NOT FOR MANUFACTURE / NOMINAL mm / THIRD-ANGLE VIEW POSITIONS</text>
<text x="36" y="791" fill="#365774" font-size="12">CAD hidden-line projections; bounds and features are reference only. No tolerance, fit, finish or strength approval.</text>
</svg>